<svg width="80" height="40" viewBox="0 0 80 40" fill="none" xmlns="http://www.w3.org/2000/svg">
  <path class="fill-current" d="M52.144 34.686v.029h27.24v-.029c.22-.042.315-.14.315-.295l.315-10.376c-.055-.155-.26-.267-.52-.155-1.284 3.29-3.444 7.579-4.428 8.69-.67.787-1.19.843-2.57.843l-9.322.155c-.464 0-.56-.211-.56-1.8V18.194c0-1.321.11-1.476.82-1.476 2.214 0 3.445.113 4.169.422.765.534 1.695 2.6 3.349 6.777.205.267.519.154.615-.057-.15-2.066-.205-4.4-.205-7.465 0-2.7.054-4.612.205-6.412-.205-.21-.41-.21-.615-.056-.725 1.912-2.57 5.245-3.09 5.568-1.024.21-2.159.267-4.578.267-.56 0-.67-.056-.67-1.012 0-2.433.11-9.21.26-12.654 0-.577.205-.956.67-.956h7.107c2.01 0 2.679.323 3.24 1.223 1.08 1.8 2.883 5.722 4.072 8.577.206.056.356 0 .52-.211L78.168.83c0-.577-.109-.746-.67-.746-2.008.113-11.795.211-17.96.211-2.624 0-5.248-.112-7.107-.21-.205 0-.26.056-.26.632 0 .366 0 .422.26.422h3.964c.355 0 .465.112.41 2.01-.11 6.412-.205 12.767-.205 22.665v5.933c0 1.589-.15 1.8-.82 1.8h-3.212c-2.037 0-3.608-.38-4.169-1.378-.724-1.167-1.08-3.29-1.08-5.512 0-5.61-2.938-9.265-7.613-9.856-.56-.154-.56-.421 0-.632 4.634-.802 7.367-3.389 7.367-8.267 0-3.572-2.556-7.705-10.142-7.888H7.148v.717c0 .366.041.45.288.45h5.098c.341 0 .396.113.45.703.233 5.02.575 17.56.575 26.137 0 9.631-1.367 10.91-4.538 10.91-1.421 0-3.403-.703-3.403-3.388 0-.464.232-1.223.847-1.743.683-.52 1.08-1.28 1.08-2.278 0-1.406-1.19-3.037-3.117-3.037-3.007 0-4.428 1.926-4.428 4.26 0 4.26 3.567 7.17 9.65 7.17 5.48 0 8.132-2.235 9.376-5.51.041.098.123.126.205.126 1.859-.155 4.278-.267 7.162-.267 2.98 0 6.848.154 8.598.267.205 0 .314-.155.314-.478 0-.633-.11-.69-.41-.69h-4.019c-.56 0-.724-.055-.724-1.7V17.73c0-.421.11-.632 1.134-.632 2.31 0 3.91.056 5.044.365 2.939.844 4.688 3.445 4.688 8.366 0 6.411 1.86 8.267 8.188 8.689l2.76.154a.761.761 0 00.178.014zm-28.02-8.942v5.934c0 1.532-.054 1.7-.765 1.7h-3.978c.575-2.066.725-4.456.725-6.93 0-7.762-.11-17.8-.232-24.155 0-1.055.164-1.111.847-1.111h3.458c.15.183.15.675.15 1.898-.109 5.708-.205 14.82-.205 22.664zm13.587-10.277c-1.436.632-2.98.689-6.903.689-.56 0-.67-.057-.67-.535 0-3.599.11-10.91.26-14.087 0-.366.205-.577 2.624-.577 5.618 0 7.928 2.854 7.928 7.41 0 4.4-1.49 6.355-3.24 7.1z" fill="#fff"></path>
</svg>