<svg xmlns="http://www.w3.org/2000/svg" width="51.44" height="51.91" viewBox="0 0 51.44 51.91">
  <g id="Layer_2" data-name="Layer 2">
    <g id="Layer_1-2" data-name="Layer 1">
      <path d="M25.73,0a7.3,7.3,0,1,1-7.29,7.3A7.3,7.3,0,0,1,25.73,0Z" fill="#e8e2bf" fill-rule="evenodd"/>
      <path d="M1,6.39,5.77,2.7c1.05-.76.87-1,1.71.28C11,8.55,16.54,13.73,23.41,18.09,15.8,19.74,7.79,15.8.64,8.2c-1-1.12-.72-1,.33-1.81Z" fill="#e8e2bf" fill-rule="evenodd"/>
      <path d="M50.47,6.39,45.67,2.7c-1.05-.76-.87-1-1.71.28C40.4,8.55,34.9,13.73,28,18.09,35.64,19.74,43.65,15.8,50.8,8.2c1-1.12.72-1-.33-1.81Z" fill="#e8e2bf" fill-rule="evenodd"/>
      <path d="M24.6,21.79A109.58,109.58,0,0,1,3.71,45.33c-.92.8-1.69,1.44,0,2.08C12,50.52,16.91,51.94,26,51.9c7.24.16,14.49-2.19,21.43-4.69,1.45-.52.6-1.4-.14-2.05C38.16,37.1,31.43,29.73,26.37,21.68c-.81-1.3-1.09-.95-1.77.11Z" fill="#e8e2bf" fill-rule="evenodd"/>
    </g>
  </g>
</svg>
