<?xml version="1.0" encoding="UTF-8"?>
<svg id="Layer_2" data-name="Layer 2" xmlns="http://www.w3.org/2000/svg" viewBox="0 0 334.73 405.1">
  <defs>
    <style>
      .cls-1 {
        fill: #8a8e61;
      }

      .cls-2 {
        fill: #a07951;
      }

      .cls-3 {
        fill: #f3e1c4;
      }

      .cls-4 {
        fill: #e3b7a1;
      }

      .cls-5 {
        fill: #fdfdfc;
      }

      .cls-6 {
        fill: #e7d2b1;
      }
    </style>
  </defs>
  <g id="Layer_1-2" data-name="Layer 1">
    <g>
      <path class="cls-1" d="M312.29,227.53c.55,3.49,1.88,7.87,3.68,10.9-.89,4.27-.21,8.44-.22,12.66-6.9-20.4-17.39-39.05-30.75-56.43l-22.56-32.5c-12.75-18.36-21.48-45.51-13.14-66.48,1.78-4.47,5.3-8.55,8.62-11.99,4.56-4.72,10.76-7.6,17.62-8.76l7.69-1.3c11.63-.2,21.78,4.74,33.95,9.9-3.74-9.12-12.35-14.17-20.3-18.92-12.05-7.2-26.34-9.4-39.91-5.25-9.5,2.91-16.6,9.97-21.48,18.5-16.66,29.1-3.85,68.27,15.43,94.73,2.57.91,3.95,2.93,2.93,6.06l14.09,16.06c19.65,18.97,34.26,41.94,41.21,68.53,3.12,11.93,3.48,23.49,4.12,35.13-2.31,4.11-2.75,10.01-7.83,19.26-2.35.54-4.73.17-6.5-1.92l3.92-10.73c.72-1.97.41-3.71-1.16-4.57,8.22-29.58-7.89-63.08-26.42-87.03-4.05-5.23-7.25-10.34-12.73-14.71l11.84,27.52,13.53,27.39c6.73,16.54,9.5,33.81,6.42,51.18-1.18,1.34-1.36,3.28-4.09,4.26l-.72-21.63c-2.92-23.4-12.81-45.03-27.38-62.8.41-.31.72-.72.86-1.03.25-.57-.19-.93-.51-.96-.45-.04-1.36-.01-1.7.06l-.79-1.01c-.89-3.63-4.45-6.91-7.96-8.1l-3.19-2.69c.59-2.08-1.1-2.55-2.44-3.61-5.33-4.19-10.45-7.62-16.28-10.82-2.26-1.24-4.09-2.91-6.67-2.45-30.3-17.3-50.43-52.85-65.68-84.21l-23.87-49.09c-4.57-9.4-10.84-17.43-18.71-24.42l-5.62-2.17c-4.05-10.71-12.66-23.4-17.71-16.83-7.54,9.81-6.49,19.66-9.35,21.42-2.84,1.75-3.43-4.2-.93-12.4-13.61-.2-25.74,4.31-36.24,11.25-10.46,6.91-15.36,16.54-19.73,27.74l-17.04,25.52c1.77.64,4.98,1.12,6.22,2.91,1.76,2.54.91,5.55-.39,7.57-1.6,2.47-3.98,3.1-7.14,3.72,7.9,9.58,22.03,7.73,33.89,5.81,10.17-1.64,19.97-2.39,29.37-7.03,1.3-.64,4.81-3.32,5.33.05.3,1.97-4.18,4.29-6.55,5.11-.23,11.08-1.86,21.28-3.71,32.24-3.3,19.49-5.95,38.42-5.37,58.23.75,25.58,6.76,49.36,19.74,71.16l18.74,31.45c.31,22.4.04,44.42-2.26,66.78-1.07,10.32-3.51,23-12.32,22.94l-13.14-.09c-1.02-1.09-2.95-.57-3.15-3.45,2.08-.11,4.36-.89,4.46-2.61l1.78-.19c-.35.49.58,1.18,1.05,1.08l9.33-1.9c3.12-1.84,3.86-7.77,4.28-11.48,2.65-23.2,3.22-45.83,3.13-69.13l-18.09-30.21c-23.7-39.57-22.79-81-16.18-125.15l5.45-36.41-23.29,4.77c-10.64,2.18-21.91,1.31-31.48-3.47-10.21-5.1-10.75-18.4-3.21-29.12l15.18-21.56c4.74-10.94,9.2-21.2,19.82-27.87-3.14-6.29-3.24-13.29.13-14.95,1.74-.86,3.83-.29,5.99,1.07,2.3-2.89.24-8.46,4.18-10.83,1.84-1.11,4.29-.21,6.39.4.51-4.11,1.59-7.63,4.46-9.48s7.19-1.59,10.06,1.15l14.47,13.8c2.73-5.8,7.79-8.72,13.15-6.44,6.37,4.13,10.58,10.32,13.67,17.17,6.06,3.39,10.73,7.85,14.99,13.17,8.59,10.49,14.91,21.92,20.8,34.17l18.5,38.51c7.38,15.36,15.88,29.29,25.95,43.03,23.05,31.42,46.52,35.72,65.51,54.18l1.03-1.06-25.97-50.49c-11.76-22.86-18.21-51.87-9.05-75.77,4.77-12.45,13.09-23.76,25.61-29.01,16.91-7.1,35.67-4.32,51.17,4.85,9.65,5.71,18.02,12.77,23.14,22.85,1.58,3.11-2.85,9.07-5.75,7.8l-9.98-4.36c-13.33-5.82-29.66-6.73-42.04,2.21-22.41,16.19-12.31,51.62,2.2,72.94l19.06,28c8.91,13.09,18.09,25.46,24.5,39.68ZM83.39,21.33l-14.9-14.26c-1.1-.83-2.67-1.25-3.7-.81-2.95,1.26-3.2,10.8-.01,16.98,6.55-1.96,12.01-1.6,18.62-1.92ZM59.39,23.63l-2.56-8.83c-.43-.81-3.45-.48-3.82.53-1.36,3.71-1.11,7.96,1.13,11,1.75.28,5.66-1.29,5.25-2.7ZM44.62,31.27c2.56-.79,3.8-2.29,3.95-3.29s-.7-3.61-1.83-4.02c-2.08-.76-3.72,1.63-3.94,3.04-.27,1.71.37,4.72,1.82,4.27ZM262.64,197.47l-.5.5.5.5.5-.5-.5-.5ZM259.77,209.24l-.5,1.73c-.82-.49,2.42.56.5-1.73Z"/>
      <path class="cls-1" d="M164.03,368.56c.2,1.15,1.02.97,1.42.71.76-.47,1.32-.87,1.86-1.65,8.52-6.07,18.33-9.11,28.65-11.53.09-.44.16-1.28.62-1.98l-21.8-7.26c-3.69-.51-5.32-4.66-7.51-6.4-10.48-5.22-20.38-10.35-29.95-17.14l-14.42,62c-1.91,8.23-7.69,16.32-16.48,18.15-12.19,2.53-24.91,1.76-36.66.08.1-.51.1-1.12-.09-1.38-.35-.48-1.17-.92-2.07-1.12-3.37-.75-5.57-3.82-3.78-7.12,1.32,1.64,2.15,2.27,3.41,2.52,11.36,2.19,23.59,2.41,35.5.74,6.08-.85,10.97-5.08,12.46-10.65l6.36-23.84,12.85-60.14c.44-2.08.08-4.69-1.25-6.07-9.3-9.65-16.51-20.41-20.65-33.25-6.93-21.5-2.83-44.44,11.45-62.05.53-.65,2.12.42,2.23.88,1.21,4.95-11.91,20-9.97,44.38,1.69,21.21,12.99,40.03,30.42,51.23.8.51.36,2.53.27,3.05-.11.72-.65,1.97-1.99,1.16l-3.25-1.97-3.17,16.61c7.01,5.21,13.83,9.5,21.08,13.08l.79-.79c-7.78-15.93-10.38-34.67-5.16-52.07,6.72-22.4,25.52-37.19,49.03-37.56,18.27-.29,36,7.06,47.85,20.17-.53.67-1.09,1.48-1.64,1.81-9-6.99-18.45-12.34-29.44-14.5-1.13-.22-2,.11-1.97,1.23-21.1-3.89-42,2.58-52.43,22.12-6.13,11.47-8.24,24.28-5.21,37.52,2.46,10.76,6.53,23.9,15.26,31.35,7.72,6.59,19.97,7.1,29.48,9.43,11.88,2.91,23.15,1.87,34.61-.41.76-.15,1.4,1.51,1.18,1.99-1.55,3.24-12.87,5.04-20.78,5.79-22.73,2.14-51.63,9.06-62.47,29.41-1.34,2.52-3.1,8.56-.54,10.29,9.6,2.92,19.61,1.59,29.46.62,23.94-2.36,46.89-7.35,68.82-17.25l34.48-17.48c38.44-19.49,41.59-77.63,30.74-115.9l-.14-1.01-1.04-3c-1.46-7.49-4.54-14.59-8.16-21.09-6.19-11.13-12.68-21.83-20.25-32.57-11.23-15.95-22.03-39.4-16.52-57.8,2.83-9.45,11.45-14.82,21.29-12.79,7.17,1.48,13.86,5.46,19.01,11.36-14.79,10.43-17.16,31.98-11.62,46.72l13.15,35c9.06,21.29,15.45,42.98,17.02,66.14,2.36,34.76-7.14,74.08-38.45,90.94l-14.36,7.73c-34.24,18.45-68.61,27.06-107.55,28.8-6.37.29-13.1.11-18.82-2.54-4.69-2.17-5.48-8.66-4.44-13.49,1.73-7.99,7.36-14.22,13.26-19.23ZM299.37,186.56c-2.89-13.35-6.14-24.46-3.8-36.85,1.06-8.39,5.4-15.5,11.48-20.68-2.96-2.04-5.61-3.59-8.69-4.76-6.55-2.49-12.89.64-15.26,7.39-5.73,16.33,6.19,39.76,16.27,54.91ZM160.88,329.08l-.85,1.02c.92.87,1.75-.45.85-1.02Z"/>
      <path class="cls-2" d="M72.35,385.6c-.1,1.72-2.38,2.5-4.46,2.61.2,2.87,2.12,2.36,3.15,3.45-2.23-.01-4.4,2.47-3.81,4.78-1.26-.24-2.09-.88-3.41-2.52-1.79,3.3.4,6.38,3.78,7.12.9.2,1.72.64,2.07,1.12.19.26.19.87.09,1.38-4.9-.7-9.53-4.29-8.31-9.86,1.15-5.25,6.25-7.59,10.92-8.09Z"/>
      <path class="cls-3" d="M320.46,241.36l-4.49-2.93c-1.8-3.03-3.13-7.41-3.68-10.9-.14-.87.82-2.15-.43-3.86-.64-.88-.62-2.66.43-3.4,3.62,6.5,6.7,13.6,8.16,21.09Z"/>
      <path class="cls-2" d="M196.58,354.12c-.46.7-.53,1.53-.62,1.98-10.32,2.42-20.12,5.45-28.65,11.53-.54.77-1.11,1.18-1.86,1.65-.4.25-1.23.43-1.42-.71,9.11-7.75,20.67-11.97,32.55-14.44Z"/>
      <path class="cls-2" d="M75.19,386.49c-.47.1-1.4-.59-1.05-1.08.47-.05.96.6,1.05,1.08Z"/>
      <path class="cls-5" d="M283.24,73.64c-.06-.49-.2-.92-.18-1.25.24-4.6-16.79-1.22-28.34,9.97-.49.47-1.67.61-1.95,1.54-.29.98-.87,1.87-1.63,2.55-10.72,9.55-15.79,23.79-12.06,38.33l7.83,30.54c2.28-6.06-.11-11.5-1.8-16.94-4.14-13.34-6.08-33.04,1.12-42.85l3.07.15c-8.34,20.97.39,48.12,13.14,66.48l22.56,32.5c13.36,17.38,23.85,36.03,30.75,56.43l.17.49.07,1.91c3.45,13.63,5.09,27.84,1.01,42.32l-2.3-11.8c-1.47,4.87.93,10.21-1.42,14.38-.64-11.64-1-23.19-4.12-35.13-6.96-26.59-21.56-49.56-41.21-68.53l-14.09-16.06c1.02-3.13-.36-5.15-2.93-6.06-19.28-26.47-32.09-65.64-15.43-94.73,4.88-8.53,11.98-15.59,21.48-18.5,13.56-4.15,27.85-1.95,39.91,5.25,7.95,4.75,16.56,9.8,20.3,18.92-12.16-5.16-22.32-10.1-33.95-9.9Z"/>
      <path class="cls-5" d="M301.73,300.42l-1.47,3.13c-1.25,5.18-3.86,9.44-8.41,11.81,2.12-4.38,1.93-7.26,2.52-10.59,3.08-17.36.31-34.64-6.42-51.18l-13.53-27.39-11.84-27.52c5.48,4.38,8.68,9.48,12.73,14.71,18.53,23.94,34.64,57.45,26.42,87.03Z"/>
      <path class="cls-6" d="M83.39,21.33c-6.62.31-12.07-.04-18.62,1.92-3.19-6.18-2.94-15.72.01-16.98,1.03-.44,2.6-.02,3.7.81l14.9,14.26Z"/>
      <path class="cls-2" d="M305.46,317.64c-3.35,6.1-7.7,12.11-14.46,16.03-1.02.59-2.19-2.29-1.13-3.48,3.98-4.45,6.33-9.61,9.09-14.47,1.77,2.09,4.15,2.46,6.5,1.92Z"/>
      <path class="cls-6" d="M59.39,23.63c.41,1.41-3.5,2.98-5.25,2.7-2.24-3.05-2.49-7.3-1.13-11,.37-1.01,3.4-1.34,3.82-.53l2.56,8.83Z"/>
      <path class="cls-3" d="M257.05,82.45c.43.28.64.62.87,1.25-3.32,3.43-6.84,7.52-8.62,11.99l-3.07-.15,5.85-7.97c.79-1.07.93-2.41.69-3.67.27-.93,1.46-1.07,1.95-1.54.54.32,1.9.52,2.34.09Z"/>
      <path class="cls-6" d="M283.05,72.39c-.02.33.12.76.18,1.25l-7.69,1.3c-6.87,1.16-13.06,4.04-17.62,8.76-.23-.63-.44-.97-.87-1.25,6.73-6.9,16.43-9.7,26-10.06Z"/>
      <path class="cls-3" d="M44.62,31.27c-1.45.45-2.09-2.56-1.82-4.27.22-1.41,1.86-3.8,3.94-3.04,1.12.41,1.97,3.02,1.83,4.02s-1.39,2.5-3.95,3.29Z"/>
      <path class="cls-2" d="M248.89,210.87c-5.05-4.26-10.37-8.3-16.4-11.75l-8.99-5.13c2.58-.46,4.41,1.21,6.67,2.45,5.83,3.2,10.95,6.63,16.28,10.82,1.34,1.05,3.03,1.53,2.44,3.61Z"/>
      <path class="cls-2" d="M262.18,224.59c-.65-.45-1.17-1.13-1.35-1.92.34-.08,1.25-.1,1.7-.06.32.03.77.39.51.96-.13.3-.45.71-.86,1.03Z"/>
      <path class="cls-2" d="M260.04,221.66c-2.33-3-5.05-5.65-7.96-8.1,3.51,1.19,7.07,4.48,7.96,8.1Z"/>
      <rect class="cls-5" x="262.29" y="197.62" width=".71" height=".71" transform="translate(-63.06 243.7) rotate(-45)"/>
      <path class="cls-5" d="M299.37,186.56c-10.09-15.15-22.01-38.58-16.27-54.91,2.37-6.75,8.71-9.88,15.26-7.39,3.08,1.17,5.72,2.72,8.69,4.76-6.07,5.19-10.42,12.3-11.48,20.68-2.34,12.4.91,23.5,3.8,36.85Z"/>
      <path class="cls-2" d="M252.1,259.34l4.87,5.39c.51.57.52,1.66.14,2.04-.28.28-.72.37-1.83.34-10.16-9.88-22.55-16.7-36.23-19.22-.03-1.12.84-1.46,1.97-1.23,10.99,2.16,20.43,7.51,29.44,14.5.55-.33,1.12-1.15,1.64-1.81Z"/>
      <path class="cls-3" d="M321.63,245.37c-1.37.48-1.8-1.15-.14-1.01l.14,1.01Z"/>
      <path class="cls-6" d="M223.5,193.99l8.99,5.13c6.03,3.44,11.35,7.49,16.4,11.75l3.19,2.69c2.91,2.45,5.63,5.11,7.96,8.1l.79,1.01c.18.79.7,1.47,1.35,1.92,14.57,17.77,24.45,39.4,27.38,62.8l.72,21.63c2.74-.97,2.91-2.92,4.09-4.26-.59,3.33-.4,6.21-2.52,10.59,4.55-2.36,7.16-6.63,8.41-11.81l1.47-3.13c1.57.86,1.88,2.59,1.16,4.57l-3.92,10.73c-2.76,4.87-5.1,10.02-9.09,14.47-1.07,1.19.1,4.07,1.13,3.48,6.76-3.92,11.11-9.93,14.46-16.03,5.08-9.25,5.52-15.15,7.83-19.26s-.06-9.5,1.42-14.38l2.3,11.8c4.08-14.48,2.44-28.69-1.01-42.32,1.08-.27,1.73-1.88-.07-1.91l-.17-.49c0-4.22-.68-8.39.22-12.66l4.49,2.93,1.04,3c-1.66-.13-1.24,1.5.14,1.01,10.85,38.26,7.7,96.4-30.74,115.9l-34.48,17.48c-21.93,9.89-44.88,14.89-68.82,17.25-9.85.97-19.86,2.3-29.46-.62-2.55-1.73-.8-7.77.54-10.29,10.84-20.36,39.74-27.27,62.47-29.41,7.91-.75,19.23-2.55,20.78-5.79.23-.48-.42-2.14-1.18-1.99-11.47,2.28-22.74,3.32-34.61.41-9.51-2.33-21.75-2.84-29.48-9.43-8.74-7.45-12.8-20.59-15.26-31.35-3.03-13.23-.91-26.04,5.21-37.52,10.43-19.54,31.33-26.01,52.43-22.12,13.68,2.52,26.08,9.34,36.23,19.22,1.11.03,1.55-.06,1.83-.34.37-.38.37-1.47-.14-2.04l-4.87-5.39c-11.86-13.11-29.58-20.46-47.85-20.17-23.52.37-42.32,15.16-49.03,37.56-5.22,17.4-2.63,36.15,5.16,52.07.28-.05.44.11.5.27.91.57.07,1.89-.85,1.02-.05-.15-.22-.39-.45-.5-7.25-3.57-14.07-7.87-21.08-13.08l3.17-16.61,3.25,1.97c1.34.81,1.87-.44,1.99-1.16.08-.52.53-2.53-.27-3.05-17.43-11.2-28.73-30.02-30.42-51.23-1.94-24.38,11.18-39.43,9.97-44.38-.11-.46-1.71-1.53-2.23-.88-14.28,17.61-18.39,40.54-11.45,62.05,4.14,12.84,11.35,23.59,20.65,33.25,1.33,1.38,1.69,3.99,1.25,6.07l-12.85,60.14-6.36,23.84c-1.49,5.57-6.38,9.8-12.46,10.65-11.91,1.67-24.13,1.45-35.5-.74-.58-2.3,1.58-4.79,3.81-4.78l13.14.09c8.81.06,11.25-12.62,12.32-22.94,2.31-22.36,2.57-44.38,2.26-66.78l-18.74-31.45c-12.99-21.8-18.99-45.58-19.74-71.16-.58-19.82,2.07-38.74,5.37-58.23,1.86-10.97,3.49-21.17,3.71-32.24,2.37-.83,6.85-3.14,6.55-5.11-.52-3.37-4.03-.7-5.33-.05-9.4,4.64-19.19,5.39-29.37,7.03-11.86,1.91-25.99,3.76-33.89-5.81,3.16-.63,5.54-1.25,7.14-3.72,1.3-2.02,2.15-5.03.39-7.57-1.24-1.79-4.44-2.26-6.22-2.91l17.04-25.52c4.37-11.2,9.27-20.83,19.73-27.74,10.5-6.94,22.63-11.45,36.24-11.25-2.5,8.2-1.91,14.15.93,12.4,2.86-1.76,1.81-11.61,9.35-21.42,5.05-6.57,13.66,6.12,17.71,16.83l5.62,2.17c7.87,6.99,14.14,15.02,18.71,24.42l23.87,49.09c15.25,31.36,35.37,66.92,65.68,84.21ZM99.03,38.29c3.74-5.69-.18-13.49-4.47-16.83-2.44,3.79-2.72,7.7-2.74,12.15-.01,2.94,5.37,7.48,7.21,4.68ZM45.39,74.7c7.97,2.94,13.31-.21,18.88-4.13l14.53-2.3c-5.07-.91-12.34-2.34-17.01,0-6.21,3.1-11.64,5.4-18.3,1.2-1.57,3.17-4.24,4.97-4.01,8.38,2.44.16,4.29-2.2,5.9-3.15ZM290.8,316.95l-.65.02.65.02h.68l.65-.02-.65-.02h-.68Z"/>
      <path class="cls-1" d="M45.39,74.7c-1.61.95-3.46,3.31-5.9,3.15-.23-3.41,2.44-5.21,4.01-8.38,6.65,4.2,12.08,1.9,18.3-1.2,4.66-2.33,11.93-.9,17.01,0l-14.53,2.3c-5.57,3.92-10.91,7.06-18.88,4.13Z"/>
      <path class="cls-1" d="M99.03,38.29c-1.84,2.8-7.22-1.74-7.21-4.68.02-4.45.29-8.35,2.74-12.15,4.3,3.34,8.21,11.14,4.47,16.83Z"/>
      <polygon class="cls-5" points="290.8 316.95 291.48 316.95 292.13 316.97 291.48 316.99 290.8 316.99 290.15 316.97 290.8 316.95"/>
      <path class="cls-1" d="M315.99,253.49l-.07-1.91c1.81.03,1.16,1.63.07,1.91Z"/>
      <path class="cls-6" d="M252.08,87.57l-5.85,7.97c-7.2,9.81-5.27,29.51-1.12,42.85,1.69,5.44,4.08,10.87,1.8,16.94l-7.83-30.54c-3.72-14.54,1.35-28.78,12.06-38.33l.94,1.12Z"/>
      <path class="cls-4" d="M283.05,72.39c-9.57.37-19.28,3.16-26,10.06-.44.43-1.8.23-2.34-.09,11.55-11.2,28.58-14.57,28.34-9.97Z"/>
      <path class="cls-4" d="M252.08,87.57l-.94-1.12c.76-.68,1.34-1.57,1.63-2.55.24,1.26.09,2.6-.69,3.67Z"/>
    </g>
  </g>
</svg>