<?xml version="1.0" encoding="UTF-8"?>
<svg id="Layer_2" data-name="Layer 2" xmlns="http://www.w3.org/2000/svg" viewBox="0 0 405.01 292.31">
  <defs>
    <style>
      .cls-1 {
        fill: #a07951;
      }

      .cls-2 {
        fill: #f3e1c4;
      }

      .cls-3 {
        fill: #e3b7a1;
      }

      .cls-4 {
        fill: #fdfdfc;
      }

      .cls-5 {
        fill: #e7d2b1;
      }
    </style>
  </defs>
  <g id="Layer_1-2" data-name="Layer 1">
    <g>
      <path class="cls-1" d="M92.5,48.57c4.01,2.98,9.16,3.35,14.07,1.5l7.93-3,10.17,4.01c6.21,1.49,13.25.43,19.82-.43,10.55-1.38,20.19-.57,30.45.76l21.46,2.79,34.17,1.1,62.48-1.33c18.33-3.93,36.31-3.34,54.84-1.07,13.84-2.88,27.48,2.52,35.57,14.26,19.45,30.12-.48,71.55,9.04,106.52l6.36,13.06c3.27,6.72,6.09,13.65,6.14,21.36.08,11.66-5.35,29.43-8.78,28.51-1.56-.42-1.62-8.74-5.08-12.84-11.3-13.39-10.89-28.79-7.58-44.98-.26-9.24-3.62-19.74-3.18-29.75l1.63-36.96c.45-10.19-.12-20.51-5.54-29.13-.45,11.8-1.06,21.28-3.71,31.45l-7.9,30.28c-4.66,17.85-.72,34.77,8.51,50.23,3.21,5.37.29,13.38-1.33,18.93-5.16,17.72-7.01,35.71-5.85,54.14.4,6.36-2.37,8.29-6.18,12.75-1.93,2.25-.77,8.99-5.76,10.22-6.93,1.71-14.93,1.49-22.25.48-1.83-.25-1.7-2.93-1.1-4.04l7.74-14.28c4.76-13.22,6.44-27.7,4.64-41.65-1.28-9.94-6.11-18.02-10.67-27.18l-4.67,6.04.64,9.65-9.79,22.61c-4.42,10.22-8.01,20.46-9.19,31.56-.37,3.46-4.69,3.84-6.11,6.02-1.84,2.82-.97,8.51-5.49,9.5-7.32,1.6-15.89,1.45-23.39.19-1.84-.31-.29-4.28.44-5.35,10.78-15.68,18.81-32.92,22.06-51.8,1-5.82-1.39-11.54-2.01-17.11-2.32-1.38-4-2.27-6.39-2.71-1.32,2.98-2.59,5.61-5.1,7.15-2.22,1.36-4.63.28-5.72-.95-1.56-1.75-1.83-4.48-.88-6.48,1.92-4.06.42-5.94-2.18-8.94l-8.3-9.62c-19.08,8.12-42.18,7.39-62.52,4.36-8.15-1.21-15.94-1.96-24.21-.04l-4.58,33.65.97,26.26c.24,6.48,3.28,14.16-.39,20.11-1.3,2.11-4.43,2.43-4.18,6.31.26,4.1-3.66,7.63-7.7,7.63h-17.95c-1.77-.01-1.42-3.63-.85-4.68l6.77-12.27c4.92-13.94,3.55-29.45-1.95-42.77-4.98,13.65-6.37,26.74-5.98,40.34.18,6.26-6.14,5.82-6.74,11.04-.44,3.82-3.14,6.86-7.22,7.33-10.36,1.2-22.23,1.03-19.74-3.56l8.12-14.95c5-11.63,7.7-24.93,6.12-37.57l-4.46-35.53c-10.54-5.87-17.96-14.63-22.28-25.81-4.15-9.33-7.48-18.55-9.12-28.69l-18.45-32.59c3.26-1.08,6.04-1.54,6.54-4.75l-8.07,3.29c-13.27,3.33-22.2-1.52-27.66,5.43-7.39,9.4-16.2,2.92-24.93,2.77C5.66,119.15.06,110.44,0,101.24c-.06-8.06,2.63-11.69,8.14-16.92,5.85-5.56,10.54-14.97,12.62-22.83,1.4-5.32.72-10.02,5.28-14.75-10.53-.85-18.27-6.43-21.28-15.88-.85-2.67-.11-5.59,1.68-7.31,8.54-8.18,25.52,5.14,28.38,3.83.78-.36,1.64-1.4,2.75-2.95-9.64-4.42-14-16.96-9.48-18.48,3.34-1.13,9.61,9.96,19.28,8.94,3.3-.35,5.62-2.36,9.56-.78l6.46-.15,9.68,2.43c1.03-4.75-1.19-7.82-2.07-11.51-.62-2.58,2.53-4.56,4.27-4.82,8.24-1.2,15.8,12.29,11.38,25.54-.53,1.59-.21,2.61.45,3.28,2.27,2.32,11.26-6.15,24.46-6.42,4.23-.09,9.89.94,10.48,5.8.88,7.29-4.57,13.58-9.12,16.94-6.44,4.76-13.05,4.69-19.9,2.78l-.5.59ZM30.34,116c4.68.65,10.19-4.77,10.74-8.87,1.1-8.1-12.22-14.09-2.09-31.66,5.98-10.39,10.56-21.27,18.54-30.43s7.69-16.77,14.12-21.49c-3.5-3.59-8.12-2.16-11.7-3.04-3.9-.96-6.51.58-9.41.85-5.02.46-5.51,2.51-8.16,5.36-8.38,9.02-11.82,18.68-13.96,30.64-2,11.17-9.33,21.5-16,30.36-1.84,2.44-5.65,2.82-6.19,6.6-.44,3.08,6.47,6.08,3.76,9.65-.73.96-3.14.67-4.37.92.41,4.88,5.03,8.38,9.84,9.05l14.89,2.06ZM27.96,37.74l.14-1.88-11.91-5.51c-.15.03-.6.28-.73.69l12.5,6.7ZM88.36,45.95c.47.47,1.12.84,1.66,1.1l.51-.49-1.39-.62c.03-.7.24-1.64,1.06-2.11l21.57-12.42c-9.61.32-25.16,10.47-24.31,14.04.08.33.4.52.91.5ZM91.04,47.03l-.5.5,1.48.53.5-.5-1.48-.53ZM62.08,63.03c3.8.49,6.1-1.43,6.18-4.48.07-2.41-2.48-4.78-4.99-4.23s-3.72,2.87-3.63,5.74c.05,1.6.25,2.68,2.44,2.96ZM140.54,197.35c-1.72-9.86-6.78-18.38-4.84-28.66,6.95,15.76,10.6,31.54,14.48,47.55l6.19,19.06c4,12.31,3.4,24.91,1.8,37.69,3.58,1.14,7.68,2.44,11.3,1.75,3.06-.58,3.34-5.04,3.12-7.64l-2.53-30.18c.97-20.54,4.54-40.51,9.85-61.1,4.49,3.93,1.7,8.56.68,14.14,29.75-.79,52.25,9.76,82.73-2.09l15.94-9.08c8.73-4.97,17.89-7.71,27.73-7.02-3.29-9.03-7.82-16.32-6.47-25.7,4.41,5.97,5.21,12.71,8.21,18.71,6.19,12.38,15.29,21.48,24.14,32.04,7.69,9.18,13.02,21.39,15.18,33.29,2.51,13.84-.45,27.44-3.09,41.17,3.21,1,7.31,2.43,10.82,2.19,3.83-.27,4.8-5.8,4.74-9.34-.3-19.33,1.92-37.46,7.33-55.7,1.39-4.69.48-9.74-2-13.56-4.92,4.33-10.37,3.47-14.23-1-9.05-10.48-2.87-27.24-13.72-28.92-3.96-.61-7.41-.14-10.08-2.82-7.33-7.38-2.54-18.46-8.32-20.69-3.78-1.46-7.56-1.77-9.66-4.42-5.84-7.38,2.97-16.98-6.18-24.15-4.59-3.6-5.67-9.65-4.03-15.13,3.22-10.77,16.29-6.52,20.78-15.57,4.34-8.76-3.99-15.27-3.37-24.91l-25.23,2.13c-7.26,17.58-27.6,2.07-31.17,18.24-1.46,6.62,2.41,11.46,8.67,13.62,9.4,3.24,12.69,12.91,9.65,21.73-1.45,4.23-4.56,7.66-9.03,9.5-15.69,6.45-7.64,21.18-12.31,31.58-2.3,5.12-6.96,8.51-11.68,9.06-12.18,1.42-15.54-11.42-19.7-12.69-6.84-2.1-11.78-5.6-15.22-12-1.9-3.54-16.13-5.05-13.4-23.5-1.54-3.28-5.54-7.09-4.74-11.38,1.95-10.5,10.98-10.56,11.52-18.7s-11.69-11.5-11.14-24.34l-18.55-2.09c-5.58.9-7.36,8.73-5.89,13.11l3.35,9.98c1.97,5.88,1.6,12.69-2.37,17.99-6.7,8.95-5.88,21.84,3.34,28.96l9.96,5.1c5.55,5.61,7.7,14.24,5.72,21.69-1.63,6.15-7.09,8.16-12.7,7.38-10.74-1.48-9.28,13.78-15.15,17.54-2.72,1.74-5.94,1.72-8.57-.13-6.16-4.34-10.21-12.22-9.15-19.99l1.24-9.03c1.03-7.49.33-16-6.39-20.6-4.28-2.93-10.2.37-12.19,5.01-1.21,2.84-3.07,6.42-2.83,9.54.46,5.97-.43,12.45-6.08,15.6-4.51,2.52-9.5,1.12-14.85-.87,5.22,21.2,16.93,34.93,38.4,37.66ZM376.03,81.05l-.02.65v.68l.02.65.02-.65v-.68l-.02-.65ZM78.57,108.35c4.81-4.07,9.74-8.03,11.07-14.74l-12.34,12.6c-.18.24-.32,1.58,1.27,2.15ZM321.8,208.02l-.09-.8c1.74-.44,2.71-2.12,3.94-3.14l2.09-1.74c.44-.36,1.6-.96,1.6-1.79s-1.22-1.33-1.62-1.74l-1.83-1.91-7.57-7.86c-.33-1.07-.82-1.41-1.42-2.2l-5.35-6.86c-.02-.33-.46-.84-.67-1.18-1.78-2.85-14.17-2.49-21.06.6s-12.72,7.06-18.7,11.5c2.68,5.24,8.81,10.62,14.07,14.09-1.52,3.23-3.54,5.74-2.57,9.37l4.2-7.01c2.85-2,5.89,1.07,8.32,2.07,12.01,4.91,18.88-2.74,22.04,1.12s1.48,12.19,5.71,10.42c2.96-1.24-.36-6.11-1.1-12.92ZM305.18,268.04l9.48-28.89c1.53-4.67,4.45-9.16,5.3-14.38-1.72-2.71-5.02-6.03-4.79-10.66l-14.33,1.64c.89,6.6,2.49,13.04,1.15,19.87-2.4,12.19-7.23,22.96-12.53,34.5l11.23,2.4c1.99.43,3.77-2.21,4.51-4.48ZM129.49,244.65c.58,9.48-2.06,18.08-4.85,27.1,3.54,1.23,7.98,3.08,11.34,1.74s2.39-5.84,2.63-8.26l1.17-11.86c.25-2.5,2.12-6.34,1-8.9-.93-2.11-11.6-2.08-10.73-2.5-.58.28-.61,1.8-.56,2.69Z"/>
      <path class="cls-2" d="M140.54,197.35c-21.47-2.73-33.18-16.46-38.4-37.66,5.35,1.99,10.34,3.4,14.85.87,5.64-3.15,6.53-9.63,6.08-15.6-.24-3.13,1.62-6.71,2.83-9.54,1.98-4.64,7.91-7.94,12.19-5.01,6.73,4.6,7.42,13.11,6.39,20.6l-1.24,9.03c-1.06,7.77,2.98,15.65,9.15,19.99,2.63,1.85,5.86,1.87,8.57.13,5.87-3.76,4.4-19.02,15.15-17.54,5.61.77,11.07-1.23,12.7-7.38,1.98-7.46-.18-16.09-5.72-21.69l-9.96-5.1c-9.21-7.13-10.04-20.02-3.34-28.96,3.97-5.3,4.35-12.12,2.37-17.99l-3.35-9.98c-1.47-4.38.31-12.21,5.89-13.11l18.55,2.09c-.54,12.83,11.7,15.87,11.14,24.34s-9.57,8.21-11.52,18.7c-.8,4.29,3.21,8.11,4.74,11.38-2.74,18.45,11.49,19.96,13.4,23.5,3.44,6.4,8.38,9.9,15.22,12,4.15,1.27,7.52,14.11,19.7,12.69,4.72-.55,9.38-3.94,11.68-9.06,4.66-10.39-3.38-25.12,12.31-31.58,4.47-1.84,7.57-5.28,9.03-9.5,3.04-8.83-.25-18.49-9.65-21.73-6.26-2.16-10.13-7-8.67-13.62,3.57-16.17,23.91-.66,31.17-18.24l25.23-2.13c-.62,9.64,7.71,16.15,3.37,24.91-4.48,9.05-17.56,4.8-20.78,15.57-1.64,5.48-.56,11.53,4.03,15.13,9.15,7.17.34,16.77,6.18,24.15,2.1,2.65,5.89,2.97,9.66,4.42,5.78,2.23.99,13.3,8.32,20.69,2.67,2.69,6.11,2.21,10.08,2.82,10.85,1.68,4.67,18.44,13.72,28.92,3.86,4.47,9.32,5.33,14.23,1,2.48,3.82,3.39,8.87,2,13.56-5.4,18.24-7.63,36.37-7.33,55.7.06,3.53-.92,9.07-4.74,9.34-3.51.24-7.61-1.19-10.82-2.19,2.64-13.73,5.6-27.33,3.09-41.17-2.16-11.9-7.49-24.11-15.18-33.29-8.85-10.57-17.95-19.67-24.14-32.04-3-6-3.8-12.74-8.21-18.71-1.35,9.38,3.18,16.68,6.47,25.7-9.85-.69-19.01,2.05-27.73,7.02l-15.94,9.08c-30.49,11.85-52.98,1.3-82.73,2.09,1.02-5.58,3.81-10.21-.68-14.14-5.31,20.6-8.88,40.57-9.85,61.1l2.53,30.18c.22,2.6-.07,7.06-3.12,7.64-3.61.69-7.71-.62-11.3-1.75,1.6-12.78,2.2-25.38-1.8-37.69l-6.19-19.06c-3.88-16.02-7.54-31.79-14.48-47.55-1.94,10.28,3.11,18.8,4.84,28.66Z"/>
      <path class="cls-2" d="M30.34,116l-14.89-2.06c-4.81-.67-9.43-4.17-9.84-9.05,1.23-.25,3.64.04,4.37-.92,2.71-3.57-4.2-6.57-3.76-9.65.54-3.78,4.35-4.15,6.19-6.6,6.67-8.86,14-19.19,16-30.36,2.14-11.96,5.58-21.62,13.96-30.64,2.65-2.85,3.14-4.91,8.16-5.36,2.9-.26,5.51-1.81,9.41-.85,3.59.88,8.21-.55,11.7,3.04-6.42,4.71-5.8,11.94-14.12,21.49s-12.56,20.04-18.54,30.43c-10.12,17.57,3.19,23.56,2.09,31.66-.55,4.09-6.06,9.51-10.74,8.87ZM28.45,97.44c-1.76-3.52-5.68-.89-7.25.78-1.8,1.91-3.13,4.88-.89,7.1,1.82,1.8,4.83.35,6.17-.87,1.45-1.32,3.47-4,1.97-7.01Z"/>
      <path class="cls-5" d="M310.88,178.78c.21.34.65.84.67,1.18.26,3.23,3.32,7.56,5.35,6.86.6.8,1.09,1.14,1.42,2.2,1.04,3.36,4.42,6.24,7.57,7.86l1.83,1.91.02,3.54-2.09,1.74c-2.13-.29-4.16,1.05-3.94,3.14l.09.8c-.78.6-1.31,1.39-1.59,3.03l-5.01-3.78c-5.76,1.2-12.12,3-17.96.92l-10.14-3.61c-6.1-2.17-10.12-7.36-14.47-12.94,7.2-5.56,14.97-10.75,24.02-12.48l14.22-.39Z"/>
      <path class="cls-2" d="M305.18,268.04c-.74,2.27-2.52,4.91-4.51,4.48l-11.23-2.4c5.3-11.54,10.14-22.31,12.53-34.5,1.34-6.82-.25-13.26-1.15-19.87l14.33-1.64c-.23,4.63,3.07,7.95,4.79,10.66-.85,5.22-3.77,9.71-5.3,14.38l-9.48,28.89Z"/>
      <path class="cls-5" d="M129.99,259.83l-2.89,10.73c2.82,1.83,7.92,3,9.12.29,1.62-3.66.8-7.99,1.03-11.34.17-2.43.21-5.21,2.54-6.13l-1.17,11.86c-.24,2.43.62,6.97-2.63,8.26s-7.8-.51-11.34-1.74c2.79-9.02,5.42-17.62,4.85-27.1.45.25,1.23.2,1.52.48.46.44.87,1.95.73,2.9l-1.75,11.79Z"/>
      <path class="cls-2" d="M310.88,178.78l-14.22.39c-9.05,1.73-16.82,6.92-24.02,12.48,4.35,5.59,8.36,10.77,14.47,12.94l10.14,3.61c5.84,2.08,12.19.28,17.96-.92l5.01,3.78c.28-1.65.81-2.44,1.59-3.03.74,6.81,4.05,11.68,1.1,12.92-4.23,1.77-2.68-6.72-5.71-10.42s-10.03,3.79-22.04-1.12c-2.43-.99-5.47-4.06-8.32-2.07l-4.2,7.01c-.98-3.63,1.04-6.14,2.57-9.37-5.26-3.47-11.39-8.85-14.07-14.09,5.99-4.45,11.97-8.48,18.7-11.5s19.27-3.46,21.06-.6Z"/>
      <path class="cls-2" d="M89.13,45.94c-.21-.09-.54-.02-.77,0-.51.02-.83-.17-.91-.5-.85-3.57,14.7-13.72,24.31-14.04l-21.57,12.42c-.82.47-1.03,1.41-1.06,2.11Z"/>
      <path class="cls-4" d="M62.08,63.03c-2.18-.28-2.39-1.36-2.44-2.96-.09-2.88,1.09-5.19,3.63-5.74s5.06,1.82,4.99,4.23c-.08,3.05-2.38,4.97-6.18,4.48Z"/>
      <path class="cls-4" d="M78.57,108.35c-1.59-.57-1.44-1.91-1.27-2.15l12.34-12.6c-1.33,6.72-6.26,10.68-11.07,14.74Z"/>
      <path class="cls-2" d="M27.96,37.74l-12.5-6.7c.14-.41.58-.66.73-.69l11.91,5.51-.14,1.88Z"/>
      <path class="cls-2" d="M325.65,204.08c-1.23,1.02-2.2,2.71-3.94,3.14-.23-2.09,1.81-3.43,3.94-3.14Z"/>
      <path class="cls-2" d="M325.89,196.88c-3.15-1.62-6.53-4.5-7.57-7.86l7.57,7.86Z"/>
      <path class="cls-2" d="M316.9,186.82c-2.02.7-5.09-3.64-5.35-6.86l5.35,6.86Z"/>
      <path class="cls-2" d="M327.74,202.34l-.02-3.54c.4.42,1.61.89,1.62,1.74s-1.16,1.43-1.6,1.79Z"/>
      <polygon class="cls-4" points="376.03 81.05 376.05 81.7 376.05 82.38 376.03 83.03 376.02 82.38 376.02 81.7 376.03 81.05"/>
      <path class="cls-1" d="M28.45,97.44c1.5,3.01-.51,5.7-1.97,7.01-1.35,1.22-4.35,2.67-6.17.87-2.24-2.22-.91-5.19.89-7.1,1.57-1.67,5.49-4.3,7.25-.78Z"/>
      <path class="cls-3" d="M137.25,259.5c-.24,3.35.59,7.68-1.03,11.34-1.2,2.71-6.3,1.54-9.12-.29l2.89-10.73c2.55.21,4.94.32,7.26-.33Z"/>
    </g>
  </g>
</svg>