<?xml version="1.0" encoding="UTF-8"?>
<svg id="Layer_2" data-name="Layer 2" xmlns="http://www.w3.org/2000/svg" viewBox="0 0 396.01 459.91">
  <defs>
    <style>
      .cls-1 {
        fill: #8a8e61;
      }

      .cls-2 {
        fill: #a07951;
      }

      .cls-3 {
        fill: #f3e1c4;
      }

      .cls-4 {
        fill: #fdfdfc;
      }

      .cls-5 {
        fill: #e7d2b1;
      }
    </style>
  </defs>
  <g id="Layer_1-2" data-name="Layer 1">
    <g>
      <path class="cls-1" d="M367.71,24.7c-.41,1.52-.38,3.19-.05,5.24,2.19-.92,2.03-3.45,1.92-4.99-.66-9.63,16.6,11.39,3.93,31.01-.95,1.47-1.48,2.55-2.96,2.32-11.73-14.86-25.4-23.77-42.86-13.11-3.75,2.29-9.15,3.14-9.23,9.18,2.74-4.67,7-5.55,10.77-7.69,21.27-12.07,33.14,7.45,41.07,12.65l23.34,15.3c1.69,1.11,2.72,2.88,2.27,4.26-1.67,5.14-17.02.84-26.66,6.97-2.25,2.78-2.68,9.15-7.04,10.52-3.03.95-6.29-.41-8.95-.32-3.34.1-5.32-2.42-9.63-3.29,2.16,3.64,6.16,4.5,9.74,5.02l8.97,1.3,11.05,16.75c2.97,4.5.27,10.13-4.2,12.89-8.18,5.04-18.49,2.27-24.8-5.69-2.9,1.24-2.6,4.01-2.1,6.85,1.92,10.78,4.61,20.71,7.53,31.15,4.82,17.26,8.03,34.42,8.84,52.52.62,13.88-1.16,27.03-3.64,40.72-6.95,38.4-25.93,78.95-57.86,102.25-13.97,10.2-29.47,16.02-45.91,21.11-6.45,2-11.78,7.94-11.17,15.48.85,10.42,2.57,24.77,10.88,32.11,8.33,7.35,32.28,10.83,31.56,15.12-.61,3.63-18.76.2-30.11-2.17,3.3,7.11,9.96,19.37,7.3,21.4-.87.66-2.3.34-3.29-.73-31.25-33.62-62.19-14.45-64.39-17.89-2.05-3.21,11.76-9.58,20.81-12.93-5.19-12.4-10.13-24.15-17.99-34.65-3.44-4.59-10.74-8.3-16.31-9.16l-31.65-4.93c-26.12-5.62-48.84-19.56-64.31-41.58-15.42-21.94-24.46-47.53-25.32-74.2l-7.5-6.92c-6.54-6.04-21.05-17.34-14.12-19.47,4.02-1.24,7.97-.46,12.24-3.47-10.7-6.02-35.77-23.43-33.84-27.77,1.64-3.68,15.1.52,26.83-3.23-12.76-8.63-23.67-17.44-30.66-30.42-3.58-6.65,13.12-4.02,24.91.34.62.23,1.49-.08,1.83-.46.55-.61.37-1.29-.56-2.13-11.97-10.83-26.11-12.19-35.98-24.07-.67-.81-.57-3.53.49-3.4,7.02.82,13.35.82,20.61.87,29.38.21,57.66,8.76,81.23,26.16,9.58,7.07,17.66,14.7,26.15,22.93,11.38,11.03,25.26,17.65,41.7,17.89,23.89.34,47.22-7.11,66.88-20.21,14.65-9.76,23.16-23.25,27.4-40.06,8.68-34.42,20.01-69.79,41.01-99.15-7.99-4.72-13.18-11.28-12.85-19.69.17-4.21,2.72-7.74,4.72-9.78,3.55-3.62,8.52-2.09,12.74-2.81,1.19-2.78,2.27-7.04,5.06-8.35,7.14-3.37,9.92.8,15.8,3.68.68-4.77,2.71-8.65,5.81-11.06,3.27-2.54,8.22-4.04,12.24-1.85,7.76,4.24,9.31,13.3,8.32,22.39,2.17-1.71,3.35-5.67,6.78-5.24,2.87.36,3.8,4.3,3.2,6.49ZM366.96,30.89l-.02.65v.68l.02.65.02-.65v-.68l-.02-.65ZM356.36,65.54c0-2.75-2.23-4.98-4.98-4.98s-4.98,2.23-4.98,4.98,2.23,4.98,4.98,4.98,4.98-2.23,4.98-4.98ZM391.93,78.11c-7.77-5.24-17.92-4.18-24.38.58,8.97-2.42,16.29-1.97,24.38-.58ZM366.67,80.86c2.82-1.49-.37-3.33-1.12-1-2.08,1.36-.04,2.75,1.12,1ZM336.51,87.47c.54.81,1.34.01.55-.54l-.55.54ZM338.23,87.84c-.53.14-.77.41-.73.59l3.12,14.31c-.19,4.69-3.66,10.68.63,15.33-.76-5.69-1.98-10.75,2.41-15.33l-5.44-14.89ZM341.52,91.48c.54.8,1.34,0,.54-.54l-.54.54ZM342.86,92.82l.54-.54c-.54-.8-1.34,0-.54.54ZM278.1,146.91l-5.32,27.94c-.89,4.7.24,9.32,2.33,13.07,2.62,4.72,6.71,2.92,10.39,3.67,2.42.49,4.21,5.86,9.14,3.35,4.17-2.12,8.98-5.68,9.8-11.13-3.17,1.1-3.89,4.04-5.97,6-2.76,2.59-6.83,3.56-9.26.26-1.94-2.63-1.37-6.01-2.1-9.3-.98,1.96-1.84,6.01-4.73,6.03-4.3.03-6.03-5.04-5.95-8.88.22-10.53,1.5-20.38,3.71-30.36l2.36-10.66-2.39.97-2,9.03ZM340.43,185.28c-.25-3.77-.31-7.84-2.51-10.68-1.36,3.71.46,6.62.57,9.81.14,4.11.66,7.8-1.01,11.49-1.34,2.97-4.58,5.37-7.65,3.79-4.12-2.11-4.83-6.37-6.84-9.94-.2,3-.2,5.88-2.57,7.48-2.03,1.38-5.13.02-6.64-2.82-7.19-13.55,2.18-37.47-6.24-55.04.69,12.23.77,23.45-1.38,35.42s.67,24.67,10.96,27.57c2.7.76,5.2-2.24,7.3-2.61,2.59.72,4.5,3.72,7.53,3.24,7.87-1.24,9.09-8.59,8.48-17.72ZM174.4,300.05c1.31-.64.43-2.12-.13-2.73-1.24-1.35-8.71,4.18-19.38,1.02,2.74-1.75,4.97-2.55,4.15-5.26-10.38,3.44-17.08-.54-15.56-2.52l2-2.62c-7.11.63-16.46-.46-17.14-3.65-.8-3.71,5.37-3.96,6.37-7.27-6.65,2.79-13.37,3.92-21.26,2.18,3.17-5.26,7.62-7.54,12.7-9.81,4.93-16.64,20.62-24.19,38.12-24.45-15.19-5.31-31.58,4.31-39.43,17.3-1.26,2.09-2.09,6.06-5.71,5.37-2.75-1.4-5.6-5.61-7.88-8.52-10.87-13.88-19.35-28.45-28.86-43.64,1.17,10.89,7.11,19.39,12.04,28.46,5.69,10.46,11.98,19.74,20.18,28.5-5.56,4.15-10.56,7.89-9.56,11.89,1.06,4.26,9.52-.72,17.98.74-.34,3.81,1.55,5.97,4.79,6.62l9.05,1.82c10.62,12.11,21.62,15.25,38.21,17.4l-8.26,19c6.48-4.88,8.98-11.86,12.53-18.2,4.99-.08,9.53-.5,14.16-2.44,10.86,5.77,22.2,2.92,32.4-3.31,18.95.53,39.21-14.53,50.81-29.9s19.63-31.68,21.88-50.7c-9.31,23.64-22.32,44.78-42.02,60.52-12.27,9.81-27.73,17.6-39.29,6.87-.69-.65-2.31.56-1.98.92l7.77,8.59c-7.26,2.9-15.61,4.82-22.79,1.77-14.44-6.12-16.06-28.49-18.28-45.21-1.44,13.58-.76,33.98,7.81,45.19-6.74,1.83-12.73,1.59-19.95-.29.87-1.92,2.58-2.67,4.56-3.64ZM214.96,290.88l-.5.5.5.5.5-.5-.5-.5ZM241.3,316.05c-.56-2.04-2.13-4.3-4.51-5.57,1.64,6.72,3.05,13.77,8.13,18.75l-3.61-13.18ZM237.09,425.07c.34-.57.78-1.86.32-2.95-5.02-11.78-7.91-23.69-10.95-36.09-.7-2.87-2.97-5.23-4.84-5.96-4.27-1.67-12.69,4.07-13.73,6.89-2.73,7.43,9.9,27.39,15.12,38.78,7.15-1.59,12.5,1.95,14.08-.67Z"/>
      <path class="cls-3" d="M370.54,58.29c-.24.51-.3.94-.25,1.03-7.92-5.2-19.8-24.71-41.07-12.65-3.78,2.14-8.04,3.02-10.77,7.69.08-6.04,5.48-6.89,9.23-9.18,17.46-10.66,31.13-1.75,42.86,13.11Z"/>
      <path class="cls-3" d="M353.25,96.05l.1,1.73c-3.58-.52-7.57-1.38-9.74-5.02,4.32.87,6.3,3.39,9.63,3.29Z"/>
      <path class="cls-3" d="M369.58,24.96c.11,1.54.26,4.06-1.92,4.99-.32-2.06-.36-3.72.05-5.24l1.87.25Z"/>
      <path class="cls-4" d="M159.04,293.08c-2.58,2.87-5.4,3.37-9.02,5.12,6.49,3.23,13.92,4.67,20.48,1.77l2.45-1.08c.45-.2,1.32-.04,1.45,1.17-1.98.96-3.69,1.72-4.56,3.64,7.22,1.88,13.21,2.12,19.95.29-8.56-11.21-9.25-31.62-7.81-45.19,2.22,16.72,3.84,39.1,18.28,45.21,7.19,3.04,15.53,1.13,22.79-1.77l-7.77-8.59c-.33-.37,1.28-1.57,1.98-.92,11.56,10.74,27.02,2.94,39.29-6.87,19.7-15.74,32.71-36.88,42.02-60.52-2.25,19.03-10.81,36.03-21.88,50.7s-31.85,30.43-50.81,29.9c-10.2,6.23-21.54,9.08-32.4,3.31-4.63,1.94-9.17,2.36-14.16,2.44-3.55,6.34-6.05,13.32-12.53,18.2l8.26-19c-16.59-2.15-27.6-5.28-38.21-17.4l-9.05-1.82c-3.24-.65-5.13-2.82-4.79-6.62-8.45-1.46-16.91,3.53-17.98-.74-1-4,4.01-7.74,9.56-11.89-8.2-8.76-14.49-18.04-20.18-28.5-4.93-9.07-10.87-17.57-12.04-28.46,9.51,15.19,17.99,29.75,28.86,43.64,2.28,2.92,5.13,7.12,7.88,8.52,3.62.69,4.45-3.28,5.71-5.37,7.85-12.99,24.24-22.61,39.43-17.3-17.5.26-33.19,7.81-38.12,24.45-5.08,2.27-9.52,4.55-12.7,9.81,7.89,1.73,14.61.6,21.26-2.18-1,3.31-7.17,3.55-6.37,7.27.69,3.19,10.03,4.28,17.14,3.65l-2,2.62c-1.51,1.99,5.19,5.96,15.56,2.52Z"/>
      <path class="cls-4" d="M237.09,425.07c-1.58,2.62-6.93-.92-14.08.67-5.22-11.39-17.85-31.35-15.12-38.78,1.04-2.82,9.46-8.56,13.73-6.89,1.87.73,4.13,3.09,4.84,5.96,3.04,12.4,5.93,24.31,10.95,36.09.46,1.08.02,2.38-.32,2.95Z"/>
      <path class="cls-4" d="M338.48,184.42l1.94.87c.61,9.13-.61,16.48-8.48,17.72-3.03.48-4.94-2.52-7.53-3.24-2.11.37-4.6,3.38-7.3,2.61-10.28-2.9-13.03-16.03-10.96-27.57s2.07-23.2,1.38-35.42c8.42,17.57-.95,41.49,6.24,55.04,1.51,2.84,4.61,4.2,6.64,2.82,2.37-1.6,2.36-4.49,2.57-7.48,2,3.57,2.72,7.83,6.84,9.94,3.07,1.58,6.31-.83,7.65-3.79,1.67-3.69,1.15-7.38,1.01-11.49Z"/>
      <path class="cls-4" d="M280.13,147.58c-2.21,9.98-3.48,19.82-3.71,30.36-.08,3.83,1.65,8.9,5.95,8.88,2.89-.02,3.75-4.06,4.73-6.03.73,3.3.17,6.67,2.1,9.3,2.42,3.3,6.5,2.33,9.26-.26,2.09-1.96,2.8-4.9,5.97-6-.82,5.45-5.63,9.01-9.8,11.13-4.94,2.51-6.73-2.86-9.14-3.35-3.68-.75-7.77,1.04-10.39-3.67-2.09-3.75-3.22-8.38-2.33-13.07l5.32-27.94,2.03.66Z"/>
      <circle class="cls-4" cx="351.38" cy="65.54" r="4.98"/>
      <path class="cls-2" d="M174.4,300.05c-.12-1.21-1-1.36-1.45-1.17l-2.45,1.08c-6.56,2.9-13.99,1.46-20.48-1.77,3.62-1.75,6.44-2.25,9.02-5.12.82,2.71-1.4,3.5-4.15,5.26,10.67,3.16,18.13-2.37,19.38-1.02.56.61,1.44,2.1.13,2.73Z"/>
      <path class="cls-3" d="M241.3,316.05l3.61,13.18c-5.07-4.98-6.49-12.03-8.13-18.75,2.39,1.27,3.96,3.53,4.51,5.57Z"/>
      <path class="cls-3" d="M391.93,78.11c-8.09-1.39-15.41-1.84-24.38.58,6.46-4.75,16.61-5.81,24.38-.58Z"/>
      <path class="cls-3" d="M336.51,87.47c.54.81,1.34.01.55-.54.46.73.86.86,1.16.91l5.44,14.89c-4.39,4.59-3.17,9.65-2.41,15.33-4.29-4.65-.82-10.63-.63-15.33l-3.12-14.31-.99-.96Z"/>
      <polygon class="cls-5" points="280.13 147.58 278.1 146.91 280.1 137.88 282.48 136.91 280.13 147.58"/>
      <path class="cls-5" d="M340.43,185.28l-1.94-.87c-.11-3.19-1.93-6.11-.57-9.81,2.21,2.83,2.26,6.91,2.51,10.68Z"/>
      <path class="cls-3" d="M366.67,80.86c-1.16,1.75-3.2.35-1.12-1,.75-2.32,3.95-.49,1.12,1Z"/>
      <polygon class="cls-3" points="366.96 30.89 366.97 31.54 366.97 32.21 366.96 32.87 366.94 32.21 366.94 31.54 366.96 30.89"/>
      <path class="cls-3" d="M341.52,91.48c.54.8,1.34,0,.54-.54l1.34,1.34c-.54-.8-1.34,0-.54.54l-1.34-1.34Z"/>
      <rect class="cls-4" x="214.6" y="291.02" width=".71" height=".71" transform="translate(-143.08 237.34) rotate(-45)"/>
    </g>
  </g>
</svg>