<?xml version="1.0" encoding="UTF-8"?>
<svg id="Layer_2" data-name="Layer 2" xmlns="http://www.w3.org/2000/svg" viewBox="0 0 319.97 309.83">
  <defs>
    <style>
      .cls-1 {
        fill: #8a8e61;
      }

      .cls-2 {
        fill: #f3e1c4;
      }

      .cls-3 {
        fill: #fdfdfc;
      }

      .cls-4 {
        fill: #e7d2b1;
      }
    </style>
  </defs>
  <g id="Layer_1-2" data-name="Layer 1">
    <g>
      <path class="cls-1" d="M313,127.51c5.24-5.5,9.07-12.13,5.7-19.19-2.49.89-2.47,3.85-4.39,3.94,2.09-8,2.01-16.49-5.23-20.71-2.02,13.65-10.61,23.81-23.85,25.09-8.87-5.75-18.24-9.52-29.01-10-28.14-2.38-53.57,12.32-83.56,5.93-9.83-2.1-18.96-4.76-29.37-3.53-18.75,2.21-33.05-14-44.02-28.88-3.34-.58-6.68.6-10.2-1.5,10.68-.08,19.75-4.7,23.21-15.12,5.26-15.86-29.57-5.43-30.35-5.95-.5-.33-.69-1.12-.61-1.58.07-.3.31-.52.59-.56,2.53-.4,3.58-11.23,16.77-22.48,14.76-12.58,35.21-9.97,47.43,4.91.83,1.01,2.52,1.46,3.27,1,3.86-2.37-6.09-19.84-22.28-24.79-25.98-7.95-47.63,6.16-62.18,28.73,3.36,1.33,6.32,2.1,8.79,4.02l-.9.67c-.68.12-2.07.3-3.03-.17-8.07-3.94-16.34-3.05-25.02.67,4.53-4.85,10.96-4.59,17.46-5.03,7.75-18.76,20.37-32.45,40.79-36.94,1.95-.43,2.91-2.25,2.41-3.93-.38-1.28-1.56-1.9-3.31-2-45.36-2.61-61.59,46.18-60.37,47.53.34.38.69.84,2.21,1.32-1.95,1.94-3.23,1.62-5.7.56-3.41-1.47-8.38,2.5-10.29,4.33-3.31,4.04-3.14,8.49-1.67,12.91.23,4.06-2.3,7.15-4.25,10.41-5.27,8.79-11.38,16.27-18.18,23.91-4.11,4.61-4.8,11.35-2.75,17.09,3.95,11.08,15.01,14.56,27.21,11.07-2.48,9.01-.87,18.07,6.86,23.46.13-1.88-1.16-3.36.44-5.83l2.94,7.5c2.88,7.34.11,11.5,2.47,12.83,3.67,2.07,8.86-12.27,7.81-23.41l3.43,2.99c2.43-7.75,1.39-15.08-2.39-21.83,7.61-1.28,13.92-3.14,19.41-6.7,3.69-2.39,5.54-6.55,9.53-10.21-.56,5.13-4.86,8.49-8.52,11.33.88,6.01,12.68,23.42,17.04,46.12,3.15,16.44,4.9,28.85,20.15,39.89,3.4,13,3.48,25.82,3.97,39.18.54,14.77-1.19,29.69-6.87,43.27l-8.55,14.43c-.49.82-.6,1.76-.36,2.45.18.5.87,1.36,1.91,1.35l16.26-.15c7.27-.07,5.52-10.49,8.38-12.23,2.83-1.72,4.24-3.72,4.31-7.14.25-12.15,1.04-24.04,4.01-35.78l8.7-34.39,9.2,34.24c3.64,13.56,6.09,28,1.41,41.52-1.98,5.73-6.69,9.93-7.78,16.63,6.67,1.57,13.87,1.4,20.33-.1,6.86-1.59,2.63-11.22,7.19-12.5.03,0,.06.03.08.04.08-.1.15-.2.23-.29l-.27-.22c1.84-1.72,3.06-4.95,2.45-8.31-4.36-23.86-4.5-47.4-.96-71.81l18.46,2.23c12.83,1.55,25.06.34,37.54-3.38,3.38,9.04,8.8,15.78,13.95,23.45,8.32,12.38-10.7,46.78-20.9,61.46-.98,1.42-2.04,3.97-1.05,5.39,6.34.9,13.83,1.63,19.97-.43,3.74-1.26,4.38-6.31,4.83-9.59l4.74-3.76,3.34-12.48,15.63-36.42c1.83-4.25.92-8.54-1.56-12.29l-6.41-9.71,1.26-1.47,15.26,17.02c5.56,6.2,7.91,13.6,8.26,21.96.49,11.79.17,23.62-4.71,34.43-2.4,5.31-6.92,9.24-7.66,15.79,7.01,1.11,15.12,1.71,21.53-.83,3.67-1.46,2.67-6.45,3.89-9.27,1.3-3.01,5.36-4.78,5.18-8.59-.74-16.03-1.39-31.67.67-47.74.56-4.34,3.27-10.07.15-13.96-12.07-15.03-10.24-28.23-4.5-46.02,4.31-13.35,4.98-27.1,1.21-40.99,9.33,1.83,20.25-6.43,19.21-15.22l-6.44,2.39ZM6.87,121.37c5.1-.7,8.86-1.95,12.39-5.8-1.38,4.87-6.96,8.49-12.39,5.8ZM35.72,54.91c-.62.91-1.77.22-.73-.59.2-.77.38-1.48.83-1.8.48-.35,1.36.03,1.49.49.12.42.34,1.63-1.59,1.9ZM48.82,143.52l-.5-.5.5-.5.5.5-.5.5ZM51.44,82.64c-2.41,0-4.37-1.96-4.37-4.37s1.96-4.37,4.37-4.37,4.37,1.96,4.37,4.37-1.96,4.37-4.37,4.37ZM74.36,50.05l-1.02-2.02.72-.92c.86.67,3.02,1.76,2.96,3.35-.28,1.04-2.2.47-2.65-.42ZM80.32,53.98c2.39,1.06,1.02,2.48-.68,1.34l.68-1.34ZM77.42,72.58c6.36-6.47,15.63-9.61,24.68-11.2.34.64-.5,2.16-1.38,2.24-8.87.75-14.73,5.85-23.3,8.96ZM80.73,75.56c-1.91.33-1.25-1.8.09-1.04l-.09,1.04ZM81.68,76.52l.16-.99c.6.23.5.95-.16.99ZM84.72,77.57c-1.9.31-1.25-1.8.1-1.05l-.1,1.05ZM85.59,78.27l.23-.73c.62-.05,1.36-.29,2.59.36-.57.81-1.87,1.03-2.82.37ZM127.93,145.31l.72.55-.89.78-.46-.6.64-.73ZM127.07,144.43l-.29,1.12c-.68-.32-.43-1.16.29-1.12ZM112.87,162.29l7.4,25.03c-3.32-2.7-3.2-7.54-5.08-11.49-1.98-4.17-3.57-8.63-2.32-13.53ZM112.69,186.51l.15-.98c.65.23.48.97-.15.98ZM112.62,184.5l-.97,1.07c-3.05-4.72-5.25-10.43-5.53-16.82l6.51,15.75ZM99.66,170.36c1.85,3.84,2.85,7.71,3.73,12.2l-.62.89c-1.86-3.54-4.08-8.14-3.11-13.09ZM103.73,184.47c-.81-.54-.01-1.34.53-.55l-.53.55ZM105.45,190.84l11.27,13.96-1.12.93c-3.69-3.96-8.72-8.16-10.15-14.89ZM116.66,206.57l.41-1.46c1.61.21.89,2.11-.41,1.46ZM119.93,208.42c-.31.2-1.3-.6-1.17-1.42.14-.92,1.37-.63,1.54-.03.11.4.05,1.18-.37,1.45ZM119.63,163.18c-.71-1.49-.6-3.69.35-4.77,2.72,8.07,5.62,15.01,6.94,23.71-4.48-6.07-4.33-12.73-7.29-18.94ZM130.72,167.82l-5.3-10.6,2-1,5.3,10.6-2,1ZM132.8,153.24l-4.44-5.87.68-1.22c3.7,2.88,6.67,6.95,8.96,11.1-2.43-.8-4.07-2.54-5.19-4.02ZM133.85,137.42l1.02-1.34,9.99,7.62-1.26,1.15-9.75-7.43ZM145.96,146.65l-1.86-1.42,1.06-1.31,1.83,1.39-1.02,1.34ZM140.15,133.52c4.7.57,8.52,2.28,12.49,5.57-4.78-.5-8.39-3-12.49-5.57ZM137.09,124.64c7.57.76,13.88,3.27,20.63,5.75-7.72-.17-14.2-2.63-20.63-5.75ZM171.89,208.24c2.52-13,4.08-25.57-3.19-36.48,3.31.14,3.07,2.61,4.51,4.58,3.45,10.33,4.84,22.22-1.32,31.91ZM205.78,211.75c13.9-2.19,26.04-6.64,40.45-9.89-12.3,6.02-26.33,10.46-40.45,9.89ZM247.26,192.11l.08-13.67c0-.83,1-1.79,1.92-1.87l.05,16.44c.02,6.04,3.8,10.71,5.65,17.02-3.95.41-7.73-13.71-7.71-17.92ZM254.41,210.46c1.83-.11,3.51,2.17,2.36,4.5-1.93-1.21-2.38-2.7-2.36-4.5ZM259.07,219.32l-2.64-3.69,1.83-1.31,2.64,3.69-1.84,1.31Z"/>
      <path class="cls-2" d="M70.31,119.36c-.05-.33-.58-.75-1.02-1.12,3.69-2.39,5.54-6.55,9.53-10.21-.56,5.13-4.86,8.49-8.52,11.33Z"/>
      <path class="cls-2" d="M246.23,201.86c-12.3,6.02-26.33,10.46-40.45,9.89,13.9-2.19,26.04-6.64,40.45-9.89Z"/>
      <path class="cls-2" d="M173.21,176.33c3.45,10.33,4.84,22.22-1.32,31.91,2.52-13,4.08-25.57-3.19-36.48,3.31.14,3.07,2.61,4.51,4.58Z"/>
      <circle class="cls-3" cx="51.44" cy="78.27" r="4.37"/>
      <path class="cls-2" d="M120.27,187.32c-3.32-2.7-3.2-7.54-5.08-11.49-1.98-4.17-3.57-8.63-2.32-13.53l7.4,25.03Z"/>
      <path class="cls-2" d="M100.72,63.62c-8.87.75-14.73,5.85-23.3,8.96,6.36-6.47,15.63-9.61,24.68-11.2.34.64-.5,2.16-1.38,2.24Z"/>
      <path class="cls-2" d="M126.92,182.12c-4.48-6.07-4.33-12.73-7.29-18.94-.71-1.49-.6-3.69.35-4.77,2.72,8.07,5.62,15.01,6.94,23.71Z"/>
      <path class="cls-2" d="M115.6,205.73c-3.69-3.96-8.72-8.16-10.15-14.89l11.27,13.96.35.32c1.61.21.89,2.11-.41,1.46l-1.06-.84Z"/>
      <path class="cls-2" d="M157.71,130.39c-7.72-.17-14.2-2.63-20.63-5.75,7.57.76,13.88,3.27,20.63,5.75Z"/>
      <path class="cls-3" d="M249.32,193.01c.02,6.04,3.8,10.71,5.65,17.02-3.95.41-7.73-13.71-7.71-17.92l2.06.9Z"/>
      <path class="cls-2" d="M111.65,185.57c-3.05-4.72-5.25-10.43-5.53-16.82l6.51,15.75c-.41.53-.13.91.22,1.03.65.23.48.97-.15.98-.43-.66-.84-.86-1.04-.94Z"/>
      <path class="cls-4" d="M249.32,193.01l-2.06-.9.08-13.67c0-.83,1-1.79,1.92-1.87l.05,16.44Z"/>
      <path class="cls-2" d="M126.78,145.55c-.68-.32-.43-1.16.29-1.12l.86.88.72.55.39.3c3.7,2.88,6.67,6.95,8.96,11.1-2.43-.8-4.07-2.54-5.19-4.02l-4.44-5.87-.6-.74-.46-.6c-.14-.18-.31-.38-.52-.48Z"/>
      <path class="cls-2" d="M152.64,139.08c-4.78-.5-8.39-3-12.49-5.57,4.7.57,8.52,2.28,12.49,5.57Z"/>
      <rect class="cls-2" x="139.57" y="133.76" width="1.68" height="15.23" transform="translate(-57.15 167.26) rotate(-52.66)"/>
      <rect class="cls-2" x="127.95" y="156.1" width="2.24" height="11.85" transform="translate(-58.83 74.83) rotate(-26.57)"/>
      <path class="cls-2" d="M102.77,183.45c-1.86-3.54-4.08-8.14-3.11-13.09,1.85,3.84,2.85,7.71,3.73,12.2.09.47.08.83.87,1.37-.55-.8-1.34,0-.53.55l-.96-1.02Z"/>
      <path class="cls-2" d="M6.87,121.37c5.1-.7,8.86-1.95,12.39-5.8-1.38,4.87-6.96,8.49-12.39,5.8Z"/>
      <path class="cls-3" d="M256.77,214.96c-1.93-1.21-2.38-2.7-2.36-4.5,1.83-.11,3.51,2.17,2.36,4.5Z"/>
      <rect class="cls-3" x="257.54" y="214.55" width="2.26" height="4.54" transform="translate(-77.85 190.86) rotate(-35.56)"/>
      <path class="cls-3" d="M35.72,54.91c-.62.91-1.77.22-.73-.59.2-.77.38-1.48.83-1.8.48-.35,1.36.03,1.49.49.12.42.34,1.63-1.59,1.9Z"/>
      <path class="cls-3" d="M84.72,77.57c-1.9.31-1.25-1.8.1-1.05l1.01,1.02c.62-.05,1.36-.29,2.59.36-.57.81-1.87,1.03-2.82.37-.36-.33-.71-.67-.87-.7Z"/>
      <path class="cls-2" d="M118.76,207c.14-.92,1.37-.63,1.54-.03.11.4.05,1.18-.37,1.45-.31.2-1.3-.6-1.17-1.42Z"/>
      <path class="cls-3" d="M80.73,75.56c-1.91.33-1.25-1.8.09-1.04l1.03,1.01c.6.23.5.95-.16.99-.41-.68-.85-.93-.95-.96Z"/>
      <rect class="cls-3" x="48.47" y="142.67" width=".71" height=".71" transform="translate(-86.83 76.41) rotate(-45)"/>
    </g>
  </g>
</svg>