<?xml version="1.0" encoding="UTF-8"?>
<svg id="Layer_2" data-name="Layer 2" xmlns="http://www.w3.org/2000/svg" viewBox="0 0 318.62 261.63">
  <defs>
    <style>
      .cls-1 {
        fill: #8a8e61;
      }

      .cls-2 {
        fill: #a07951;
      }

      .cls-3 {
        fill: #f3e1c4;
      }

      .cls-4 {
        fill: #e7d2b1;
      }
    </style>
  </defs>
  <g id="Layer_1-2" data-name="Layer 1">
    <g>
      <path class="cls-1" d="M237.17,249.63c-2.47.78-1.34,7.57-7.29,7.44l-15.32-.34c.63-5.11,6.3-7.74,3.29-9.16,6.82-11.49,13.74-23.54,16.56-37.4,1.03-5.07-1.24-13.48-3.15-17.65-4.13-3.93-8.34-5.59-11.01-12.06-8.36,9.51-17.71,5.78-27.01,4.13-6.76-.55-14.91,4.57-22.55-.37-1.36-.88-4.75-.7-6.82-.84-1.48,3.73-5.16,5.56-8.24,7.45l-2.1,23.8,1.52,25.48c.89,4.51-1.07,8.47-5.23,10.69.18,4.37-.93,8.26-4.83,10-6.21.76-12.7,1.37-18.9-.4.95-5.87,4.25-10.11,6.48-15.07,3.77-8.35,4.03-18.07,1.78-27.02l-6.88-27.4-3.95,18.53c-2.08,9.78-2.94,19.97-3.18,29.88-.12,5.1-2.87,6.76-5.82,10.5-1.29,1.63-.47,6.67-4.29,7.45-6.36,1.29-13.98,1.6-20.36-.39l8.48-15.81c3.87-9.51,5.57-19.9,4.12-30.07l-4.01-27.99c-7.47-.76-11.82-5.59-15.92-11.12-2.93-3.95-5.63-7.42-5.96-12.77-11.3-2.73-17.24-13.38-14.84-24.81-9.25-5.13-12.78-14.56-10.17-24.87-5.87-5.9-8.28-13.68-5.56-21.94-8.72.77-16.19,3.13-24.39,4.41-8.18,1.28-16.61-2.45-20.08-9.91-2.5-5.38-2-13.18,1.86-17.72,6.06-7.12,11.25-13.96,16.47-21.65l7.59-11.19c-4.36-4.17-6.24-9.51-4.18-14.87,1.85-4.44,6.33-7.82,11.86-8.43C38,1.96,43.91-.74,50.66.17c9.11,2.49,14.69-4.44,25.21,5.44,8.99.07,17.9,1.84,19.65,12.8l10.45,1.29c5.91,1.87,9.06,8.7,13.28,12.42,6.32.53,13.92,0,18.7,5.37,2.4,2.69,4.91,3.28,8.31,1.73,9.37-4.27,19.81-3.74,28.59,2.3,9.67-5.82,20.54-5.47,29.54.61,9.95-6.67,21.89-5.7,30.14,2.32,10.69-5.19,22.27-2.61,29.06,6.6,13.59-3.49,25.85,3.94,29.94,16.83,13.81,2.59,23.95,12.81,20.59,25.8,5.5,8.17,5.41,16.52,2.68,26.21,1.78,12.92,2.59,21.83-8.9,28.91-1.66,2.1-2.47,6.98-5.67,8.65,3.37,7.91.67,14.73-5.36,19.55l-4.4,10.35,1.82,11.03c-2.45,14.43-4.03,28.55-3.41,43.26.22,4.7-1.84,7.94-6.09,10.19.06,3.43-1.08,8.03-4.72,8.89-6.01,1.41-13.06.96-19.06.08-.3-6.36,4.28-9.73,6.47-14.67,4.78-10.79,5.47-23.53,3.45-35.25-1.07-6.25-5.09-11.14-7.55-16.66-.91-2.04-1.87-3.98-5.1-3.38,3.26,5.22,2.72,10.44.35,15.77-4.86,10.94-10.85,21.3-13.94,33.02-1.24,4.72-2.96,8.57-7.52,10.01ZM300.62,124.77c5.71,4.85,8.29,11.19,8.25,19.38,7.47-6.71,7.32-16.9,2.92-25.19,6.71-7.78,4.7-18.85-2.86-25.01,2.7-2.04,3.22-4.67,2.34-7.67-4.08-13.99-20.46-14.9-20.67-15.88l-.75-3.61c-4.76-10.73-16.61-15.3-27.79-11.67-6.14-10.49-18.33-12.56-28.2-5.9-8-9.38-20.12-10.04-29.91-2.9-8.94-7.28-20.11-6.81-29.54-.5-8.73-6.61-20.21-8.23-29.47-1.91-2.06.27-4.32-.17-6.65-.68-5.13-6.38-13.82-9.22-21.71-5.15-.37-7.08-11.23-15.18-13.91-15.34l-10.55-.61c.44-4.85-1.52-8.56-4.68-10.73-4.08-2.81-8.31-1.95-12.82-.56-2.44-2.44-5.08-6.46-7.79-7.16-4.26-1.1-7.66-.01-11.16,2.54-3.74-2.29-7.24-4.04-11.51-1.96-2.75.4-4.85,4.15-6.78,6.8-5.68.38-11.53,4.03-11.34,10.51.07,2.18,1.16,4.22,2.28,5.22,1.66,1.49,4.42,1.06,6.64.2,4.15,5.29,10.23,5.18,15.07,1.18,4.24,4.23,10.49,7.35,15.48,3.33.33-1.21,1.22-2.74,1.97-3.04s2.73,1.42,3.5,1.22l19.47-5.19c6.86-1.83,13.06-1.44,15.27,3.76,3.15,7.4-12.29,22.37-23.75,26.47-2.69.96-5.49.64-6.82,2.94s-2.02,4.78-1.5,8.07c-5.9,3.04-10.16,7.59-11.56,14.2l-5.2.62c-4.72,1.88-7.73,6.84-8.35,10.82-.75,4.89.51,11.23,4.7,13.81,1.87,1.15,5.42,1.97,7.61,2.48,3.7.85,5.81-3.89,6.97-6.57,2.62.6,4.76,1.19,6.85.1,4.65-2.42,2.5-8.7,10.97-10.64,5.49-1.26,5.73-7.35,6.82-11.77,10.97-2.78,7.83-9.3,9.2-11.7,1.23-2.16,4.82-3.28,6.31-6.71,1.89,4.19-3.05,5.37-4.63,7.61s-.12,6.17-2.24,8.32c-1.6,1.61-4.02,2.79-7.52,3.58-.02,5.43-2.12,11.81-7.8,12.4-3.42.36-5.02,1.07-5.95,4.72-.73,2.89-3.61,6.69-7.03,6.39-8.55-.76-6.01,9.38-16.44,5.37-4.89,6.8-1.51,19.08,7.48,21.91l4.61-.88c3.24,3.67,6.91,2.91,11.41.99-2.37,4.97-8.54,3.94-12.34.86-2.3,1.88-3.19,4.84-2.97,8.11.62,9.2,7.83,16.74,17.24,17.21,1.2-.37,2.1-2.17,4.16-2.05.2,2.75-2.21,4.19-5.54,4.71,1.34,6,4.9,10.53,8.52,14.83,4.17,4.27,9.18,5.76,14.99,4.6,3.09,4.37,7.97,6.31,12.74,3.97-3.05-3.61-2.31-7.57-4.26-11.14-1.31-2.41-7.06-3.38-5.93-7.46,2.97,3.28,6.16,5.08,9.96,6.65.25,8.41,5.57,14.39,12.71,17.17,4.94,1.92,8.63-1.52,12.41-1.46,3.86.06,7.62,3.29,12.33.89,8.01-4.07,11.34-12.97,7.77-21.55,2.96.59,2.67,2.76,3.85,3.77.84-3.65-.92-6.5,1.42-10.06,3.23,7.2-3.14,17.59.15,18.79l3.49,1.27c7.28,3.69,15.43,3.75,22.22-1.39,8.21,6.46,18.55,5.97,26.01-1.4,7.54,3.62,15.81,1.61,20.14-5.13-2.05-2.32-4.95-3.94-3.42-7.74.54,5.51,7.09,6.97,8.99,10.26,4.19,7.87,9.74,13.61,19.16,11.82,1.85,1.79,4.15,3.13,6.58,2.95,1.75-.13,4.2-2.16,5.97-3.43,4.13.86,7.83,2.33,11.59-.36,3.15-2.26,4.16-5.53,5.91-9.59,1.35-3.12,5.84-5.05,6.16-8.1.51-4.96.5-8.15-2.81-12.45,2.91-.52,4.29-1.82,5.53-3.84,5.48-8.89,3.42-19-3.52-25.89.08-.17-.02-.62-.61-1-.15-.95.99-1.24,1.39-.5.11.2.39.42.72.69ZM101.43,28.59c-.89-1.01-2.89-1.71-4.63-1.25l-23.03,6.19c-2.55.68-5.94,1.35-7.11,4.04-1.8,4.14.53,8.9,3.39,11.43,11.52,10.16,35.86-15.32,31.38-20.41ZM59.93,76.46c2.95-4.6,4.1-9.47,9.6-11.22l3.26-10.05c-7.58-2.94-11.55-10.54-10.22-18.49-5.3,1.64-9.21-2.25-12.55-4-5.46,2.51-11.1,3-16.15-1.85l-9.85,12.96c-5.43,8.73-11.34,16.17-18.13,23.95-2.7,3.09-2.86,10.08-.62,13.28,5.03,7.22,13.98,8.71,21.81,5.94s15.93-1.79,22.72-5.47c2.83-1.54,6.76-4.41,10.14-5.06ZM239.76,188.95c4.1,2.81,8.7,2.81,12.26-.76-4.94-2.75-7.94-7-10.39-13-4.17,5.07-9.07,7.53-15.27,7.72,3.5,5.03,8.1,5.92,13.41,6.04ZM116.32,233.19l3.46-26.77,2.07-16.6c-6.17.54-11.48-.04-17.62-2.84l2.46,22.62c1.16,10.64-.17,20.87-3.7,31.27,2.95,1.63,7.5,3.11,10.44,1.59,3.02-1.55,2.47-6.01,2.89-9.27ZM283.22,245.64c2.82-1.31,3.12-4.61,3.3-6.95l2.95-37.47c.25-3.19.32-8.13-1.97-10.5l-10.14-.44-9.33,3.05,6.69,14.34c2.58,11.95,1.67,24.05-1.55,36.04,2.67,2.07,7.01,3.34,10.05,1.93ZM150.82,238.68l-1.42-27.77,1.09-18.39-8.42-1.97c-3.2.43-5.92,2.55-9,2.14l5.22,23.16c2.13,9.45,1.7,18.85-.3,28.13,3.24,1.35,6.65,2.68,9.63,1.67,2.71-.92,3.31-4.44,3.19-6.96ZM239.04,241.75l13.96-32.96c2.32-5.48,3.5-10.71.69-16.69-5.44,2.87-10.97,2.61-17.08.86.51,6.49,3.18,11.92,2.14,17.67-2,11.1-7.91,20.49-12.17,30.74,6.16,2.86,10.7,4.51,12.46.38Z"/>
      <path class="cls-2" d="M237.17,249.63c-.13,3.21-1.02,7.51-4.78,8.46-6.34,1.61-13.2,1.15-19.49-.31.57-4.57,3.16-7.22,4.94-10.22,3.01,1.43-2.66,4.06-3.29,9.16l15.32.34c5.94.13,4.82-6.66,7.29-7.44Z"/>
      <path class="cls-3" d="M299.12,125.58c6.94,6.89,9,17,3.52,25.89-1.24,2.02-2.62,3.31-5.53,3.84,3.31,4.31,3.32,7.5,2.81,12.45-.31,3.04-4.81,4.98-6.16,8.1-1.75,4.06-2.76,7.33-5.91,9.59-3.75,2.69-7.45,1.22-11.59.36-1.77,1.27-4.22,3.3-5.97,3.43-2.44.18-4.74-1.16-6.58-2.95-9.42,1.79-14.97-3.95-19.16-11.82-1.89-3.29-8.45-4.75-8.99-10.26-1.53,3.8,1.36,5.42,3.42,7.74-4.33,6.74-12.6,8.75-20.14,5.13-7.46,7.37-17.8,7.86-26.01,1.4-6.8,5.14-14.95,5.09-22.22,1.39l-3.49-1.27c-3.29-1.2,3.08-11.59-.15-18.79-2.34,3.55-.58,6.41-1.42,10.06-1.18-1.02-.88-3.18-3.85-3.77,3.57,8.58.24,17.48-7.77,21.55-4.72,2.4-8.47-.84-12.33-.89-3.78-.05-7.47,3.38-12.41,1.46-7.14-2.78-12.47-8.76-12.71-17.17-3.79-1.57-6.98-3.37-9.96-6.65-1.12,4.08,4.62,5.05,5.93,7.46,1.94,3.57,1.2,7.53,4.26,11.14-4.76,2.34-9.65.4-12.74-3.97-5.81,1.16-10.82-.34-14.99-4.6-3.62-4.3-7.19-8.83-8.52-14.83,3.32-.52,5.74-1.96,5.54-4.71-2.06-.12-2.97,1.68-4.16,2.05-9.41-.47-16.62-8.02-17.24-17.21-.22-3.26.66-6.22,2.97-8.11,3.8,3.08,9.97,4.11,12.34-.86-4.5,1.92-8.17,2.68-11.41-.99l-4.61.88c-8.99-2.83-12.37-15.11-7.48-21.91,10.42,4.01,7.89-6.13,16.44-5.37,3.42.31,6.3-3.5,7.03-6.39.93-3.65,2.52-4.37,5.95-4.72,5.68-.59,7.78-6.97,7.8-12.4,3.49-.79,5.92-1.97,7.52-3.58,2.12-2.14.6-5.99,2.24-8.32s6.51-3.43,4.63-7.61c-1.49,3.43-5.08,4.55-6.31,6.71-1.37,2.4,1.77,8.92-9.2,11.7-1.09,4.42-1.32,10.52-6.82,11.77-8.48,1.94-6.32,8.22-10.97,10.64-2.09,1.09-4.23.5-6.85-.1-1.17,2.68-3.27,7.42-6.97,6.57-2.19-.51-5.74-1.33-7.61-2.48-4.19-2.58-5.45-8.92-4.7-13.81.61-3.98,3.63-8.93,8.35-10.82l5.2-.62c1.39-6.61,5.65-11.16,11.56-14.2-.51-3.28.23-5.87,1.5-8.07s4.14-1.98,6.82-2.94c11.46-4.09,26.9-19.06,23.75-26.47-2.21-5.2-8.42-5.59-15.27-3.76l-19.47,5.19c-.77.21-2.77-1.51-3.5-1.22s-1.64,1.84-1.97,3.04c-4.99,4.02-11.23.91-15.48-3.33-4.85,4-10.92,4.11-15.07-1.18-2.22.86-4.99,1.29-6.64-.2-1.12-1.01-2.21-3.04-2.28-5.22-.2-6.48,5.66-10.13,11.34-10.51,1.93-2.65,4.03-6.4,6.78-6.8,4.27-2.08,7.77-.34,11.51,1.96,3.5-2.55,6.9-3.64,11.16-2.54,2.7.7,5.35,4.72,7.79,7.16,4.52-1.38,8.74-2.24,12.82.56,3.15,2.17,5.12,5.88,4.68,10.73l10.55.61c2.68.16,13.54,8.25,13.91,15.34,7.89-4.07,16.58-1.23,21.71,5.15,2.33.51,4.59.95,6.65.68,9.26-6.32,20.75-4.7,29.47,1.91,9.43-6.31,20.6-6.78,29.54.5,9.79-7.14,21.91-6.48,29.91,2.9,9.87-6.65,22.05-4.59,28.2,5.9,11.18-3.62,23.03.95,27.79,11.67l.75,3.61c.2.98,16.59,1.89,20.67,15.88.88,3,.36,5.63-2.34,7.67,7.56,6.16,9.57,17.23,2.86,25.01,4.4,8.3,4.55,18.48-2.92,25.19.04-8.19-2.55-14.53-8.25-19.38l-1.5.8ZM111.91,45.04c-.81-.95-1.88.31-.79.93l.79-.93ZM112.37,45.55l-.92.76c1.75,2.25,1.57,4.83-.99,7.36,2.76.1,3.58-2,3.88-3.75.29-1.66-.59-3.29-1.98-4.36ZM197.83,61.15c-1.7-1.7-4.03-2.05-6.69-2.72l-6.29-1.58c-.1.34.1.87.46,1.13l11.96,3.79c.2-.34.37-.49.55-.63ZM198.33,61.64l-.5.5.5.5.5-.5-.5-.5ZM199.84,64.14c-.31.6.85,1.89,1.55,1.45,6.72-4.3,12.62-1.68,18.53,3.33-3.47-7.65-13.13-8.49-19.52-5.25-.17.09-.4.27-.56.47ZM199.33,62.64l-.5.5.5.5.5-.5-.5-.5ZM230.54,72.75c5.08,3.54,15.44-1.52,15.15-5.64-.1-1.4-.41-3.9-3.14-3.39.81,1.79,1.83,4.51.34,5.91-3.34,3.14-7.58,2.23-12.35,3.12ZM267.33,69.64c-1.34-.76-2,1.37-.09,1.04l.09-1.04ZM268.35,70.65l-.16.99c.66-.04.77-.76.16-.99ZM271.63,80.24c1.36-3.74-.25-6.47-2.67-8.44.61,3.41.73,5.48,2.67,8.44ZM157.02,80.9c-7.4,3.09-12.21,2.6-18.51.21,5.38,5.33,14.31,4.74,18.51-.21ZM217.98,91.54c.57,2.96,10,2.98,11.49-.84.81-2.07,1.33-5.43-1.42-6.11.59,2.18.8,6.19-1.16,6.84-3.05,1-6.04.13-8.91.1ZM275.77,94.29c-.18,1.53,1.16,1.6,1.55,1.37.54-.32.75-.92.51-1.51-.19-.47-1.32-1.18-2.07.14ZM284.79,104.99c.97-4.76-2.77-8.57-6.27-9.01,3.34,3.07,4.2,5.91,6.27,9.01ZM173.82,104.21c6.62,3.37,15.69-.52,15.93-7.83-3.45,6.62-9.3,7.83-15.93,7.83ZM261.03,100.41c-7.46,4.09-14.37,4.26-21.74,1.49,4.39,6.35,21.02,3.59,21.74-1.49ZM103.31,111.22c7.08,1.62,15.48-1.09,16.3-7.99-4.94,6.49-10.71,8.36-17.76,5.75-1.82,3.09-4.03,5.38-4.58,8.31.09,0,.7-.25,1.17-.02,1.76-1.5,1.59-4.73,4.87-6.05ZM153.55,106.17c2.72,2.89,8.38,5,11.7,2.23-10.16-.03-12.4-6.17-11.7-2.23ZM292.81,123.72c4.58-2.49,2.9-8.16-1.06-9.18,1.98,3.27,2.21,5.85,1.06,9.18ZM86.38,122.73c2.8-6.81-3.94-1.96-3.84,9.35l3.84-9.35ZM221.78,123.66c-5.03,3.14-8.53,2.89-12.96,2.99-4.76.11-8.47.57-12.88-3.19,2.38,5.91,7.92,5.27,12.95,4.83,4.84-.42,10.47.83,12.89-4.63ZM299.91,124.08c-.4-.74-1.54-.45-1.39.5l1.39-.5ZM127.75,127.86c-2.22.36-3.8,3.42-6.11,4.53-6.98,3.33-5.15,12.99-13.14,15.79-5.14,1.8-9.12.23-13.67-2.19.46,3.95,3.88,3.41,5.78,5.36-2.03,2.04-3.78,3.22-2.52,5.84,2.31-1.59,2.59-3.99,3.94-6.56,7.3.65,13.31-3.26,15.48-10.23,2.31-7.42,6.67-6.59,10.15-11.71,1.5,1.19,2.99.69,4.82-.35,3.69-2.09,13.04,3.19,15.67-3.5-4.26,2.19-7.84,2.22-12.63,1.31-2.6-.49-5.45,1.35-7.79,1.72ZM277.26,134.76c-2.67-8.08-13.92-11.19-19.75-5.33,7.9-3,13.95-.86,19.75,5.33ZM278.01,149.9c5.17-3.81,3.95-10.99-.2-14.14,1.85,5.54,1.9,9.29.2,14.14ZM160.91,139.1c.1-.26-.93-1.52-1.52-1.36-.94.26-.56.92-.25,1.25l.99,1.05.78-.94ZM161.43,139.44l-.77,1.05c4.14,5.89,15.12,5.66,23,5.27,2.1-.1,6.26,3.37,7.46-2.12-2.57,2.49-5.93.05-8.07.35-8.27,1.14-18.64-.42-21.62-4.56ZM248.94,140.64c0-.61-.5-1.11-1.11-1.11s-1.11.5-1.11,1.11.5,1.11,1.11,1.11,1.11-.5,1.11-1.11ZM232.75,144.23c4.7.7,9.8,1.66,13.78-1.98-4.63-.54-9.66,1.05-13.38,1.24-5.74-5.37-4.8,3.34-15.94,5.4,4.23,2.16,8.27-1.11,10.5-4.28,1.72-2.44,3.36-.64,5.04-.39ZM253.26,162.81c6.33,3.45,12.83-1.75,13.2-7.8-3.43,5.74-7.15,7.33-13.2,7.8ZM147.88,157.61c.04-1.09-1.73-.71-2.54.38-3.27,4.42-7.89,2.03-13.29,2.65,5.02,3.28,12.19,2.62,15.83-3.02Z"/>
      <path class="cls-3" d="M59.93,76.46c-3.37.64-7.3,3.52-10.14,5.06-6.79,3.69-15.27,2.84-22.72,5.47-7.83,2.77-16.78,1.28-21.81-5.94-2.23-3.21-2.08-10.19.62-13.28,6.8-7.78,12.7-15.22,18.13-23.95l9.85-12.96c5.04,4.85,10.69,4.37,16.15,1.85,3.34,1.76,7.25,5.64,12.55,4-1.33,7.95,2.64,15.55,10.22,18.49l-3.26,10.05c-5.5,1.74-6.65,6.62-9.6,11.22ZM48.44,48.73c0-2.06-1.67-3.74-3.74-3.74s-3.74,1.67-3.74,3.74,1.67,3.74,3.74,3.74,3.74-1.67,3.74-3.74ZM16.83,73.12c-.06-1.44-1.39-2.12-2.53-1.84-2.3.57-4.42,2.33-4.63,3.92-.17,1.26.88,2.47,1.71,2.57,3.09.37,5.56-1.96,5.45-4.65ZM20.71,83.02c-.25-2.87-2.56,1.22-9.14,1.99,2.76,1.44,6.93,1.32,9.14-1.99Z"/>
      <path class="cls-3" d="M283.22,245.64c-3.04,1.41-7.38.15-10.05-1.93,3.22-12,4.13-24.09,1.55-36.04l-6.69-14.34,9.33-3.05,10.14.44c2.29,2.37,2.22,7.31,1.97,10.5l-2.95,37.47c-.18,2.34-.48,5.64-3.3,6.95Z"/>
      <path class="cls-4" d="M116.32,233.19c-.42,3.26.12,7.71-2.89,9.27-2.94,1.52-7.49.04-10.44-1.59,3.53-10.41,4.85-20.64,3.7-31.27l-2.46-22.62c6.14,2.81,11.46,3.38,17.62,2.84l-2.07,16.6-3.46,26.77Z"/>
      <path class="cls-3" d="M150.82,238.68c.13,2.51-.48,6.03-3.19,6.96-2.98,1.02-6.39-.32-9.63-1.67,2-9.28,2.43-18.68.3-28.13l-5.22-23.16c3.08.41,5.8-1.71,9-2.14l8.42,1.97-1.09,18.39,1.42,27.77Z"/>
      <path class="cls-4" d="M239.04,241.75c-1.75,4.14-6.3,2.48-12.46-.38,4.26-10.25,10.17-19.64,12.17-30.74,1.04-5.75-1.63-11.19-2.14-17.67,6.12,1.75,11.65,2.01,17.08-.86,2.81,5.99,1.63,11.21-.69,16.69l-13.96,32.96Z"/>
      <path class="cls-3" d="M101.43,28.59c4.48,5.09-19.86,30.57-31.38,20.41-2.86-2.52-5.19-7.29-3.39-11.43,1.17-2.69,4.56-3.36,7.11-4.04l23.03-6.19c1.74-.47,3.74.24,4.63,1.25Z"/>
      <path class="cls-3" d="M239.76,188.95c-5.31-.12-9.91-1.01-13.41-6.04,6.2-.19,11.11-2.65,15.27-7.72,2.46,5.99,5.46,10.24,10.39,13-3.56,3.57-8.16,3.57-12.26.76Z"/>
      <path class="cls-2" d="M127.67,128.68c-3.48,5.13-7.85,4.3-10.15,11.71-2.17,6.98-8.18,10.88-15.48,10.23-1.35,2.57-1.62,4.98-3.94,6.56-1.26-2.62.49-3.8,2.52-5.84-1.9-1.96-5.33-1.41-5.78-5.36,4.54,2.42,8.53,3.98,13.67,2.19,7.99-2.8,6.16-12.46,13.14-15.79,2.31-1.1,3.89-4.17,6.11-4.53l-.08.82Z"/>
      <path class="cls-2" d="M160.13,140.03l-.99-1.05c-.31-.33-.69-.99.25-1.25.6-.16,1.62,1.1,1.52,1.36.22.04.39.16.52.34,2.99,4.14,13.35,5.7,21.62,4.56,2.14-.3,5.49,2.14,8.07-.35-1.2,5.48-5.36,2.01-7.46,2.12-7.88.38-18.86.61-23-5.27-.15-.21-.38-.35-.54-.45Z"/>
      <path class="cls-1" d="M221.78,123.66c-2.42,5.46-8.06,4.21-12.89,4.63-5.03.43-10.57,1.08-12.95-4.83,4.41,3.76,8.12,3.29,12.88,3.19,4.43-.1,7.94.15,12.96-2.99Z"/>
      <path class="cls-2" d="M103.31,111.22c-3.27,1.32-3.11,4.55-4.87,6.05-.47-.23-1.08.02-1.17.02.55-2.93,2.76-5.21,4.58-8.31,7.05,2.61,12.83.74,17.76-5.75-.82,6.9-9.23,9.61-16.3,7.99Z"/>
      <path class="cls-2" d="M277.26,134.76c-5.8-6.19-11.85-8.33-19.75-5.33,5.84-5.86,17.08-2.75,19.75,5.33Z"/>
      <path class="cls-2" d="M261.03,100.41c-.72,5.07-17.35,7.84-21.74,1.49,7.37,2.77,14.28,2.6,21.74-1.49Z"/>
      <path class="cls-1" d="M197.28,61.78l-11.96-3.79c-.36-.26-.57-.79-.46-1.13l6.29,1.58c2.66.67,4.99,1.02,6.69,2.72l.5.5.5.5.5.5.5.5.57.53c6.4-3.23,16.05-2.39,19.52,5.25-5.91-5.01-11.81-7.63-18.53-3.33-.69.44-1.85-.84-1.55-1.45l-.51-.5-.5-.5-.5-.5-.5-.5-.55-.37Z"/>
      <path class="cls-1" d="M127.67,128.68l.08-.82c2.34-.37,5.19-2.21,7.79-1.72,4.79.91,8.37.88,12.63-1.31-2.63,6.69-11.98,1.41-15.67,3.5-1.83,1.04-3.32,1.54-4.82.35Z"/>
      <path class="cls-2" d="M157.02,80.9c-4.21,4.95-13.13,5.54-18.51.21,6.3,2.39,11.11,2.88,18.51-.21Z"/>
      <path class="cls-2" d="M173.82,104.21c6.64,0,12.49-1.22,15.93-7.83-.24,7.32-9.32,11.21-15.93,7.83Z"/>
      <path class="cls-2" d="M147.88,157.61c-3.64,5.65-10.81,6.3-15.83,3.02,5.41-.61,10.02,1.78,13.29-2.65.8-1.08,2.58-1.46,2.54-.38Z"/>
      <path class="cls-2" d="M217.98,91.54c2.87.02,5.86.9,8.91-.1,1.97-.65,1.75-4.66,1.16-6.84,2.75.68,2.22,4.04,1.42,6.11-1.49,3.81-10.92,3.8-11.49.84Z"/>
      <path class="cls-1" d="M253.26,162.81c6.05-.46,9.76-2.06,13.2-7.8-.37,6.05-6.87,11.24-13.2,7.8Z"/>
      <path class="cls-2" d="M278.01,149.9c1.7-4.86,1.64-8.6-.2-14.14,4.15,3.15,5.37,10.33.2,14.14Z"/>
      <path class="cls-2" d="M86.38,122.73l-3.84,9.35c-.1-11.31,6.64-16.15,3.84-9.35Z"/>
      <path class="cls-2" d="M230.54,72.75c4.77-.89,9.01.02,12.35-3.12,1.49-1.4.47-4.12-.34-5.91,2.73-.51,3.04,1.99,3.14,3.39.29,4.12-10.07,9.17-15.15,5.64Z"/>
      <path class="cls-2" d="M153.55,106.17c-.7-3.94,1.54,2.2,11.7,2.23-3.32,2.77-8.98.66-11.7-2.23Z"/>
      <path class="cls-2" d="M232.75,144.23c.8,0,.66-.42.4-.73,3.72-.19,8.75-1.78,13.38-1.24-3.98,3.64-9.08,2.68-13.78,1.98Z"/>
      <path class="cls-2" d="M284.79,104.99c-2.07-3.11-2.93-5.94-6.27-9.01,3.5.44,7.24,4.25,6.27,9.01Z"/>
      <path class="cls-1" d="M292.81,123.72c1.14-3.32.92-5.9-1.06-9.18,3.96,1.02,5.64,6.69,1.06,9.18Z"/>
      <path class="cls-1" d="M233.15,143.5c.26.31.4.73-.4.73-1.69-.25-3.32-2.05-5.04.39-2.23,3.16-6.26,6.44-10.5,4.28,11.13-2.06,10.19-10.77,15.94-5.4Z"/>
      <path class="cls-2" d="M271.63,80.24c-1.94-2.96-2.06-5.03-2.67-8.44,2.42,1.97,4.03,4.7,2.67,8.44Z"/>
      <path class="cls-1" d="M111.12,45.97c-1.09-.62-.02-1.89.79-.93.07.13.26.36.46.52,1.39,1.07,2.27,2.71,1.98,4.36-.3,1.75-1.12,3.85-3.88,3.75,2.56-2.53,2.74-5.11.99-7.36-.08-.15-.23-.28-.34-.34Z"/>
      <circle class="cls-2" cx="247.83" cy="140.64" r="1.11"/>
      <path class="cls-2" d="M275.77,94.29c.75-1.32,1.88-.6,2.07-.14.23.59.03,1.18-.51,1.51-.39.23-1.74.16-1.55-1.37Z"/>
      <path class="cls-2" d="M267.24,70.68c-1.91.33-1.25-1.8.09-1.04l1.03,1.01c.61.23.5.95-.16.99-.41-.68-.85-.93-.95-.96Z"/>
      <circle class="cls-2" cx="44.71" cy="48.73" r="3.74"/>
      <path class="cls-2" d="M16.83,73.12c.1,2.69-2.37,5.03-5.45,4.65-.83-.1-1.88-1.31-1.71-2.57.21-1.59,2.33-3.35,4.63-3.92,1.14-.28,2.48.39,2.53,1.84Z"/>
      <path class="cls-2" d="M20.71,83.02c-2.21,3.32-6.38,3.43-9.14,1.99,6.58-.77,8.89-4.86,9.14-1.99Z"/>
    </g>
  </g>
</svg>