<?xml version="1.0" encoding="UTF-8"?>
<svg id="Layer_2" data-name="Layer 2" xmlns="http://www.w3.org/2000/svg" viewBox="0 0 348.2 223.9">
  <defs>
    <style>
      .cls-1 {
        fill: #a07951;
      }

      .cls-2 {
        fill: #e3b7a1;
      }

      .cls-3 {
        fill: #fdfdfc;
      }

      .cls-4 {
        fill: #e7d2b1;
      }
    </style>
  </defs>
  <g id="Layer_1-2" data-name="Layer 1">
    <g>
      <path class="cls-1" d="M247.87,218.45c-38.57,3.25-4.84-7.28-3.21-43.64.23-5.11-1.8-9.75-3.85-15.12-22.77,4.84-44.96,3.89-68.36-.28l-7.2,28.46-3.23,20.52-5.08,5.1c-.11,5.53-3.59,9.27-8.9,9.88-10.36,1.19-19.92.77-16.94-4.81l6.98-13.05c3.41-9.95,2.87-20.84.34-30.7l-6.12,24.52c.89,4.6-1.15,8.22-5.34,9.95,0,5.01-2.95,8.47-7.38,9.38l-17.65-.29c-.25-2.91.85-5.55,2.29-7.77,12.3-18.95,8.26-42.58,1.12-63.54l-11.29-6.02c-18.06-3.29-33.67-11.27-46.06-25.13-13.07,1.32-23.35-5.17-30.4-15.57-4.7-1.15-11.26-1.66-13.95-6.75-5.53-10.46-4.71-26.93,2.48-31.57,2.93-1.89,5.88.53,8.67.7,8.55.53,19.72-2.86,25.32-9.98,5.19-6.6,8.09-13.98,15.19-19.55-4.92-3.95-6.85-8.36-8.01-14.15s-2.6-11.95-.27-17.34c4.24-1.04,7.8,1.5,11.57,2.11,10.59,1.71,19.9,6.46,25.92,15.16,4.76-2.92,5.4-9.74,13.63-16.33,9.77-7.81,21.38,3.24,27.27,15.23,10.54-.11,20.3-2.08,30.87-4.03,28.28-5.21,56.36-8.18,85.08-5.6,29.32,2.63,58.46,16.14,74.49,41.03.91,1.41,1.54,2.4,2.59,2.72,1.28.38,3.34-.39,3.54-1.43-2.41-2.87-5.12-5.68-6.11-9.17-1.22-4.31.54-9.1,3.73-10.88,4.11-2.29,8.89-1.14,11.91,2.3,4.54,5.19,4.56,12.48.96,18.54,6.76,6.98,14.09.9,15.54,4.49,1.88,4.64-10.35,8.17-19.73.7-2.46.26-4.59,1.35-7.11,2.25,9.57,29.03,2.9,50.42-10.58,76.19-7.58,14.48,2.64,21.9-.63,32.67-3.6,11.85-5.89,23.76-6.7,36.03-.24,3.69-3.5,4.67-5.13,6.94-1.55,2.92-.86,8.01-5.5,9.5-6.5,2.09-14.56,2.34-21.01-.21,1.23-6.25,4.89-9.91,7.15-14.81,5.48-11.94,7.13-35.5-3.82-43.01-2.16,13.52-11.5,24.93-14.33,39.14-.76,3.81-1.58,6.87-5.9,8.19-.34,4.35-2.8,7.67-6.84,9.04ZM98.56,8.93l-.9.71-.99,1.27-.76,1.1c-2.25,3.25-3.97,6.63-5.59,9.99-.23.49-.38,1.15-.5,2.03l-.26,1.81c-.71,4.99-1.31,9.19-2.27,9.43-1.06.27-2.31-.68-2.32-2.02l-.03-9.64c-18.26,3.7-32.79,15.46-40.83,31.94-6.52,6.66-14.79,10.2-25.02,12.06,4.81,8.91,6.87,18.92,2.74,28.32,5.98,1.6,12.48,1.63,16.34-3.45.72-.95,1.44-3.74,3.22-2.64.88,7.65-7.28,11.32-17.02,11.19,4.1,6.24,10.03,9.3,16.19,10.22,7.2,1.08,13.07-1.56,19.31-7.27.63,4.9-3.38,7.09-7.7,9.46,18.78,19.8,44.37,28.46,65.5,9.71,6.04-5.36,8.98-11.97,14.5-18.24-5.9,15.82-18.37,26.82-34.6,31.87,10.4,6.39,21.83,12.14,33.7,13.52-3.67-8.63-9.05-15.26-5.99-24.49,3.07,9.76,7.17,17.32,11.17,25.88,7.94,16.99,9.61,36.19,6.41,54.34,3.46,1.28,6.68,1.82,10.15,1.89,2.22.05,4.37-2.4,4.88-4.72l6.28-28.62,5.5-20.48c3.22-7.38,6.59-14.43,7.58-22.55.9-7.3,8.02.56-2.96,22.44,29.1,5.99,59.13,4.58,88.3-5.76-7.13-10.44-14.88-22.3-11.24-35.94,3.07,16.11,9.53,28.83,20.63,40,4.63,4.66,10.67,9.49,13.05,15.79,4.23,11.22,2.25,23.84-.68,35.46,2.84,2.16,6.89,2.62,10.57,2.2,2.15-.25,3.42-2.56,3.83-4.6l7.31-36.83c1.44-7.26-7.96-14.83,1.05-32.86,5.94-11.89,11.2-23.62,13.08-36.88,3.35-23.66-5.43-45.75-24.13-60.55-17.98-14.22-39.97-20.83-63.18-21.88-25.41-1.15-49.91,1.67-74.92,6.13-10.23,1.82-19.61,3.71-30.47,3.89,5.12,12.06-.3,28.65-6.9,28.98-.69.03-2.08-1.69-1.33-2.51,6.73-7.42,8.25-17.7,3.2-26.36l-3.35-5.74c-.24-.4-.5-.86-.72-1.16l-1.46-2.03c-1.7-2.36-3.69-4.5-6.24-6.22-4.22-2.85-8.66-2.19-12.12,1.81ZM79.21,20.14c-4.64-6.4-10.76-9.26-17.54-10.67l-11.24-2.69c.02,9.26,1.92,18.12,9.1,23.16,6.28-4.57,12.6-6.96,19.68-9.81ZM327.37,46.46c2.09-3.51,1.56-5.68.52-7.67-.73-1.39-2.84-3.54-4.91-2.68-3.22,1.34-.44,7.12,4.39,10.35ZM17.51,93.87c5.63-9.88-1.87-28.79-8.95-27.55-3.95.69-6.26,13.78-1.73,24.24,1.24,2.85,8.61,6.53,10.68,3.31ZM250.85,204.03c2.61.7,4.64-1.29,5.3-3.51,2.63-8.77,5.76-16.9,9.89-25.09s6.73-19.66-.15-22.11l-20.58,5.61c7.44,14.89,3.03,27.7-3.18,42.76l8.72,2.34ZM113.9,200.69c3.07,2.23,8.22,3.48,11.47,2.16,2.91-1.18,3.21-6.55,1.88-8.41-.43,1.52-.08,4.82-1.58,5.72-3.6,2.17-7.82-.02-11.77.53Z"/>
      <path class="cls-2" d="M110.68,7.12c2.55,1.72,4.54,3.86,6.24,6.22l.1,1.42c.07.6.73.86,1.35.61.21.3.48.76.72,1.16.21,1.99.88,4.92,3.35,5.74,5.05,8.66,3.53,18.94-3.2,26.36-.75.82.65,2.55,1.33,2.51,6.61-.33,12.02-16.92,6.9-28.98,10.86-.18,20.24-2.07,30.47-3.89,25.01-4.46,49.5-7.28,74.92-6.13,23.21,1.05,45.2,7.66,63.18,21.88,18.7,14.8,27.48,36.89,24.13,60.55-1.87,13.26-7.13,24.99-13.08,36.88-9.01,18.03.39,25.61-1.05,32.86l-7.31,36.83c-.41,2.04-1.68,4.36-3.83,4.6-3.68.42-7.73-.05-10.57-2.2,2.93-11.62,4.91-24.24.68-35.46-2.38-6.31-8.42-11.13-13.05-15.79-11.1-11.17-17.56-23.89-20.63-40-3.64,13.64,4.1,25.5,11.24,35.94-29.17,10.34-59.2,11.75-88.3,5.76,10.98-21.88,3.85-29.74,2.96-22.44-1,8.12-4.37,15.17-7.58,22.55l-5.5,20.48-6.28,28.62c-.51,2.32-2.66,4.77-4.88,4.72-3.47-.08-6.7-.61-10.15-1.89,3.2-18.14,1.53-37.35-6.41-54.34-4-8.56-8.1-16.12-11.17-25.88-3.07,9.22,2.31,15.85,5.99,24.49-11.87-1.38-23.31-7.14-33.7-13.52,16.23-5.06,28.69-16.06,34.6-31.87-5.52,6.27-8.46,12.88-14.5,18.24-21.13,18.75-46.72,10.09-65.5-9.71,4.32-2.37,8.33-4.57,7.7-9.46-6.24,5.71-12.11,8.35-19.31,7.27-6.16-.92-12.09-3.98-16.19-10.22,9.74.14,17.9-3.54,17.02-11.19-1.78-1.11-2.49,1.68-3.22,2.64-3.86,5.08-10.35,5.04-16.34,3.45,4.13-9.39,2.07-19.4-2.74-28.32,10.24-1.86,18.5-5.41,25.02-12.06,8.04-16.49,22.58-28.24,40.83-31.94l.03,9.64c0,1.35,1.26,2.29,2.32,2.02.95-.24,1.55-4.44,2.27-9.43,1.97.73,1.92-1.54.26-1.81.13-.88.27-1.55.5-2.03.79.29,1.77.08,2.05-.64l.68-1.79c1.04-2.73,2.62-4.8,2.86-7.55l.76-1.1c.93.93,1.75-.37.99-1.27l.9-.71c3.76-1.06,7.67-1.95,12.12-1.81ZM107.65,31.29c-.08-4.82-.56-10.17-5.2-13.23l1.92,10.24.08,14.58c0,1.55,1.9,2.88,2.89,2.47,2.87-1.18.46-5.3.32-14.07ZM72.64,63.05c0-2.8-2.27-5.07-5.07-5.07s-5.07,2.27-5.07,5.07,2.27,5.07,5.07,5.07,5.07-2.27,5.07-5.07Z"/>
      <path class="cls-2" d="M250.85,204.03l-8.72-2.34c6.21-15.07,10.61-27.88,3.18-42.76l20.58-5.61c6.88,2.44,4.48,13.53.15,22.11s-7.26,16.32-9.89,25.09c-.66,2.22-2.69,4.21-5.3,3.51Z"/>
      <path class="cls-2" d="M79.21,20.14c-7.09,2.85-13.4,5.24-19.68,9.81-7.18-5.04-9.08-13.9-9.1-23.16l11.24,2.69c6.78,1.41,12.9,4.26,17.54,10.67Z"/>
      <path class="cls-2" d="M17.51,93.87c-2.07,3.22-9.44-.46-10.68-3.31-4.53-10.45-2.22-23.54,1.73-24.24,7.08-1.24,14.58,17.67,8.95,27.55ZM10.1,74.33c-2.15,4.21-1.8,9.31,1.72,12.21,1.94-4.17,1.89-8.46-1.72-12.21Z"/>
      <path class="cls-3" d="M327.37,46.46c-4.82-3.23-7.6-9.02-4.39-10.35,2.07-.86,4.18,1.3,4.91,2.68,1.04,1.99,1.57,4.15-.52,7.67Z"/>
      <path class="cls-2" d="M113.9,200.69c3.95-.55,8.17,1.64,11.77-.53,1.5-.91,1.15-4.2,1.58-5.72,1.33,1.86,1.03,7.23-1.88,8.41-3.25,1.32-8.4.07-11.47-2.16Z"/>
      <path class="cls-4" d="M110.68,7.12c-4.45-.14-8.36.75-12.12,1.81,3.46-4,7.9-4.66,12.12-1.81Z"/>
      <path class="cls-4" d="M90.31,22c1.62-3.36,3.34-6.74,5.59-9.99-.23,2.75-1.82,4.82-2.86,7.55l-.68,1.79c-.28.73-1.26.94-2.05.64Z"/>
      <path class="cls-4" d="M122.44,22.27c-2.47-.82-3.14-3.75-3.35-5.74l3.35,5.74Z"/>
      <path class="cls-4" d="M89.55,25.85l.26-1.81c1.67.27,1.71,2.54-.26,1.81Z"/>
      <path class="cls-4" d="M118.38,15.37c-.63.25-1.29,0-1.35-.61l-.1-1.42,1.46,2.03Z"/>
      <path class="cls-4" d="M96.67,10.91l.99-1.27c.76.9-.06,2.2-.99,1.27Z"/>
      <path class="cls-1" d="M107.65,31.29c.14,8.77,2.55,12.9-.32,14.07-.99.41-2.88-.93-2.89-2.47l-.08-14.58-1.92-10.24c4.64,3.05,5.13,8.4,5.2,13.23Z"/>
      <circle class="cls-1" cx="67.57" cy="63.05" r="5.07"/>
      <path class="cls-1" d="M10.1,74.33c3.61,3.75,3.66,8.04,1.72,12.21-3.52-2.9-3.86-8-1.72-12.21Z"/>
    </g>
  </g>
</svg>