<?xml version="1.0" encoding="UTF-8"?>
<svg id="Layer_2" data-name="Layer 2" xmlns="http://www.w3.org/2000/svg" viewBox="0 0 373.4 337.09">
  <defs>
    <style>
      .cls-1 {
        fill: #a07951;
      }

      .cls-2 {
        fill: #f3e1c4;
      }

      .cls-3 {
        fill: #e3b7a1;
      }

      .cls-4 {
        fill: #fdfdfc;
      }
    </style>
  </defs>
  <g id="Layer_1-2" data-name="Layer 1">
    <g>
      <path class="cls-1" d="M297.21,115.87c.58.59,1.07,1.04,1.91,1.21.24.33.66.72.98.98l.97,2.03.52,1.96c.19.74,1.4.56,1.85.79.19,3.33,2.92,6.53,4.29,9.41.51,1.08.75,3.69,2.18,3.99,1.93,11.37,3.83,22.76.61,34.54l-6.23,22.73c-4.24,15.47-.35,31.01,11.55,41.91,2.52,2.31,4.54,5.81,4.02,9.75-2.86,21.65-3.25,42.95-2.19,64.85.56,11.54-8.11,9.34-7.63,16.08.84,11.77-13.4,12.06-26.81,10.02,1.68-8.49,7.27-14.17,10.92-20.97,7.05-13.14,7.28-40.63,2.83-54.77-2.15-6.81-6.83-12.33-11.71-17.46l-24.38-25.59c-5.41-5.67-6.05,8.5,4.58,25.46,2.35,3.75.8,8.43-1.67,12.08l-26.57,39.32c-6,8.88-3.67,16.34-12.12,18.92-1.21,4.41-.98,10.04-6.08,11.8-6.67,2.3-14.16,2.03-21.57.35,1.61-6.83,5.38-12.61,10.24-17.65l5.3-8.78c8.34-11.16,16.02-22.37,22.21-34.79,4.58-9.17,4.19-18.09-1.39-26.74-6.7-10.39-12.32-21.08-15.84-33.97-22.91,8.44-46.35,11.17-71.33,8.57l1.21-9.94c-.82,2.47-2.56,5.22-2.81,8.22l-3.34,39.86-1.61,18.07c-1.11,12.54-.24,25.29.45,37.47.31,5.55-4.17,7.16-6.23,10.65-1.75,4.77-.95,11.87-7.98,12.84-6.11.85-12.92.9-19.74.18.82-5.74,3.86-10.86,7.78-14.99,3.35-3.53,4.86-7.35,6.26-11.97,4.22-13.99,1.53-27.77-.3-41.9-2.16-16.63-3.8-32.68-9.38-48.22-1.12-3.12-1.78-7.37-4.83-10.16-8.75-8.01-13.28-17.84-17.22-29.71.22,19.81,18.02,29.75,20.27,38.76-8.76,7.83-23.88,13.64-36.24,17.68-5.31,1.74-8.14,6.63-6.02,12.4,3.18,8.69,7.81,17.17,13.46,24.66,1.95,2.59,5.97,3.92,8.3,5.75,9.63-5.85,15.63,12.72,12.43,25.12-4.29.85-7.12-1.59-10.32-3.29-4.61-2.45-8.75-4.88-11.38-9.65-4.59-.93-7.98-3.85-9.58-8.26l-17.5-29.54c-6.76-8.66-6.86-19.31,2.44-26.49,10.68-8.25,20.84-17.42,28.18-29.34-14.81-21.96-6.71-41.53-8.45-48.12l-14.59-55.27-14.94,5.23c-6.08,2.13-13.56,3.1-18.37,7.49-2.61,2.38-2.99,6.76-7.26,7.99-4.77,1.37-11.41.75-15.11-3.43-5.1-5.77-5.54-14.87-1.43-21.31,6.19-9.71,13.45-18.64,17.48-29.4,2.6-6.93,5.66-12.95,12.71-15.32,6.39-2.14,13.93-3.8,19.29-9.69l-19.26,8.24c-1.82.78-4.54,1.16-7.29.37,2-6.02,8.52-9.51,12.14-14.1-1.77-14.89,1.33-27.73,5.42-20.88l7.92,13.28c.59.99.05,3.54,2.33,4.5L58.72,1.07c5.5,5.02,6.99,10.84,9.59,17.03,8.86.24,16.75,3.09,24.17,7.59l20.47,12.42c1.08.65,1.73,2.57,1.59,3.44-.2,1.25-1.33,2.43-3.26,3.89,10.18,12.64,28.9,18.87,23.46,28.73,6,14,23.57,18.39,23.42,21.37-.15,2.79-5.59,3.93-11.16,1.81l-.87,1.22c6.49,5.84,13.21,21.02,11.08,32.66,6.44-8.81.44-18.98-5.32-30.02,9.82,4.27,19.65,6.05,30.43,6.87,28.97,2.21,48.13-9.84,69.76-10,17.29-.13,33.5,5.87,45.13,17.81ZM70.18,33.08c-.14-1.25-1.48-.88-1.2.21-.36,2.25,2.04,1.66,1.2-.21ZM71.77,36.17l-.91-.99-1.09,1.01.83.9,1.17-.92ZM72.01,36.43l-.94,1.17.5.54,1.16-.93-.72-.78ZM72.97,37.46l-.94,1.16.51.55,1.16-.93-.73-.78ZM73.93,38.5l-.94,1.16.52.56,1.14-.95-.71-.77ZM74.9,39.55l-.97,1.13,3.6,3.89,1.09-1.01-3.72-4.02ZM84.04,52.91c-1.96-5.23-2.9-8.75-3.33-13.13-2.33,6.13-1.51,8.89,3.33,13.13ZM45.21,53.43c0-1.76-1.43-3.18-3.18-3.18s-3.18,1.43-3.18,3.18,1.43,3.18,3.18,3.18,3.18-1.43,3.18-3.18ZM107.95,95.09c-3.66-6.42-6.93-11.25-6.99-18.02l-.09-12.16c-4.07,8.17-1.13,26.99,7.08,30.18ZM118.76,105.19c-5.05-5.45-7.59-13-7.51-21.16.03-3.34,2.97-7.27-.69-10.79l-.14,18.75c-.04,5.63,3.48,10.73,7.09,14.2l1.24-.99ZM122.62,97.97c1.23-7.88-.17-17.1-2.07-23.04-1.36,2.91.6,5.51.59,7.98-.02,5.69-.37,10.36,1.48,15.06ZM146.44,97.31c-.54-1.3-2.03-.38-.97.65l.97-.65ZM118.92,105.46l-.94,1.17.58.56,1.14-.93-.78-.8ZM131.19,110.45c-.63-1.44-1.14-3.39-2.85-4.55-.78,2.71,1,4.05,2.05,5.61l.8-1.06ZM119.97,106.38l-.92,1.25c2.23,1.96,4.25,5.06,8.29,4.24l-7.38-5.49ZM131.69,110.94l-1.09.88,1.01,1.29,1.23-.91-1.15-1.26ZM132.95,112.42l-.87,1.16.53.53,1.21-.89-.86-.79ZM133.81,113.71l-.67.86c1.32,1.13,2.7,2.19,4.39,2.65l.6-.69c-1.28-1.17-2.74-2.11-4.32-2.82ZM138.98,117.3l-1.16.46c1.1,1.01,1.17-.59,1.16-.46ZM150.4,171.85c-.19-.14,1.51.28.2-1.46l-.2,1.46ZM258.27,215.36c-8.51-15.66-15.51-28.46-15.9-45.93-3.11,2.86-1.09,6.16-1.61,9.28,3.31,13.48,7.42,27.59,17.51,36.65ZM151.73,172.11c-.22.17-.42.4-.84.46,1.31,9.56-.51,18.58-2.88,28.67,4.01-5.91,4.52-13.02,5.05-20.22l-1.34-8.92Z"/>
      <path class="cls-1" d="M309.91,136.24l-.7-4.1c-1.46-3.11-2.58-7.66-5.77-9.3-.18-.62.01-1.37-.46-2.06-.4-.58-1.35-.56-1.92-.69-.2-.56-.32-1.6-.97-2.03-.15-.31-.64-.91-.98-.98-.11-.33-.1-.91-.09-1.5,5.4-2.35,11.94-1.21,18.15.63,26.18,7.76,39.92,36.17,39.58,63.86-.19,15.45,4.72,28.75,16.64,39.98-7.77,4.74-19.08-9.64-22.64-19.5l-5.97-18.28c-.59,10.99,4.39,19.84,8.81,29.27l4.78,10.2c17.21,24.35.49,49.62-3.51,47.82-3.07-1.38,6.48-13.27-6.46-30.89-1.43-1.94-1.98-5.26-5.37-4.97,3.21,7.38,5.82,14.42,3.41,22.16l-16.03-24.97c-20.22-31.5-5.34-48.61-10.57-76.49-1.41-7.54-5.56-18.87-9.93-18.15ZM328.18,149.08c-.14-1.25-1.48-.88-1.2.21-.36,2.25,2.04,1.66,1.2-.21ZM330.55,173.07c.73.69,1.07.96,1.52.51-.36-7.65-.47-17.41-4.09-21.72,1.59,7.69,2.29,14.24,2.57,21.21ZM330.92,200.62l.52-21.11c.02-.66.85-1.53.72-1.94-.14-.44-.96-.86-1.51-.52-1.84,1.13-4.4,34.67,4.29,42.8-1.39-7.02-4.2-12.21-4.02-19.22Z"/>
      <path class="cls-2" d="M110.92,212.17c-.92.28-1.57-.27-1.78-1.11-2.25-9.01-20.05-18.95-20.27-38.76,3.94,11.87,8.47,21.7,17.22,29.71,3.05,2.79,3.71,7.04,4.83,10.16Z"/>
      <path class="cls-2" d="M32.96,37.96l.03-1.45,19.26-8.24c-5.36,5.89-12.9,7.55-19.29,9.69Z"/>
      <path class="cls-2" d="M303.44,122.85c-.45-.23-1.66-.06-1.85-.79l-.52-1.96c.56.13,1.52.11,1.92.69.47.69.27,1.44.46,2.06Z"/>
      <path class="cls-2" d="M301.07,120.09l-.97-2.03c.65.43.77,1.47.97,2.03Z"/>
      <path class="cls-2" d="M309.22,132.14l-1.49.11c-1.36-2.87-4.1-6.08-4.29-9.41,3.19,1.63,4.31,6.19,5.77,9.3Z"/>
      <path class="cls-2" d="M299.03,115.59c-.02.59-.03,1.17.09,1.5-.84-.17-1.33-.62-1.91-1.21.64.09,1.26-.04,1.82-.29Z"/>
      <path class="cls-2" d="M300.1,118.07c-.32-.27-.74-.66-.98-.98.35.07.83.67.98.98Z"/>
      <path class="cls-2" d="M258.27,215.36c-10.08-9.06-14.19-23.17-17.51-36.65.51-3.12-1.5-6.42,1.61-9.28.39,17.47,7.38,30.27,15.9,45.93Z"/>
      <path class="cls-2" d="M107.95,95.09c-8.21-3.19-11.15-22.01-7.08-30.18l.09,12.16c.05,6.77,3.33,11.61,6.99,18.02Z"/>
      <path class="cls-2" d="M117.52,106.18c-3.61-3.46-7.13-8.57-7.09-14.2l.14-18.75c3.65,3.52.72,7.45.69,10.79-.08,8.16,2.45,15.71,7.51,21.16.07.08.12.17.16.27l.78.8c.11.02.2.07.27.12l7.38,5.49c-4.04.82-6.06-2.29-8.29-4.24l-.49-.43-.58-.56-.47-.45Z"/>
      <path class="cls-4" d="M150.4,171.85c-.19-.14,1.51.28.2-1.46.44,1.28,1,1.59,1.13,1.72l1.34,8.92c-.53,7.2-1.05,14.31-5.05,20.22,2.37-10.09,4.18-19.11,2.88-28.67l-.49-.72Z"/>
      <path class="cls-3" d="M122.62,97.97c-1.85-4.7-1.5-9.37-1.48-15.06,0-2.47-1.94-5.07-.59-7.98,1.89,5.94,3.3,15.15,2.07,23.04Z"/>
      <circle class="cls-4" cx="42.03" cy="53.43" r="3.18"/>
      <path class="cls-2" d="M84.04,52.91c-4.84-4.24-5.66-7.01-3.33-13.13.43,4.39,1.37,7.9,3.33,13.13Z"/>
      <rect class="cls-2" x="73.46" y="34.17" width="1.48" height="11.43" transform="translate(-7.34 61.02) rotate(-42.79)"/>
      <path class="cls-2" d="M130.4,111.51c-1.05-1.56-2.83-2.9-2.05-5.61,1.71,1.16,2.22,3.1,2.85,4.55l.49.48,1.15,1.26c.05.06.09.14.11.22l.86.79v.49c1.59.71,3.05,1.66,4.33,2.82l.85.77c0-.13-.06,1.47-1.16.46-.05-.15-.15-.36-.28-.55-1.69-.46-3.07-1.53-4.39-2.65l-.54-.46-.53-.53-.46-.47-1.01-1.29-.2-.3Z"/>
      <path class="cls-2" d="M70.18,33.08c.84,1.87-1.56,2.46-1.2.21-.27-1.1,1.07-1.46,1.2-.21Z"/>
      <path class="cls-2" d="M330.92,200.62c-.17,7.01,2.64,12.2,4.02,19.22-8.69-8.12-6.13-41.66-4.29-42.8.55-.34,1.37.08,1.51.52.13.41-.71,1.28-.72,1.94l-.52,21.11Z"/>
      <path class="cls-3" d="M332.07,173.58l-1.52-.51c-.29-6.97-.98-13.51-2.57-21.21,3.63,4.3,3.73,14.06,4.09,21.72Z"/>
      <path class="cls-3" d="M328.18,149.08c.84,1.87-1.56,2.46-1.2.21-.27-1.1,1.07-1.46,1.2-.21Z"/>
      <path class="cls-2" d="M330.55,173.07l1.52.51c-.45.46-.8.18-1.52-.51Z"/>
    </g>
  </g>
</svg>