<?xml version="1.0" encoding="UTF-8"?>
<svg id="Layer_2" data-name="Layer 2" xmlns="http://www.w3.org/2000/svg" viewBox="0 0 466.61 370.03">
  <defs>
    <style>
      .cls-1, .cls-2 {
        fill: #e11a27;
      }

      .cls-2 {
        stroke: #000104;
        stroke-miterlimit: 10;
        stroke-width: 3px;
      }

      .cls-3 {
        fill: #181917;
      }

      .cls-4 {
        fill: #1d1210;
      }

      .cls-5 {
        fill: #072b16;
      }
    </style>
  </defs>
  <g id="Layer_1-2" data-name="Layer 1">
    <g>
      <path class="cls-4" d="M109.22,260.36c-1.66,0-3.3.52-4.65,1.54.01-.56-.14-1.24-.28-1.79,1.19-5.34,6.25-1.98,9.37-4.56l10.47-.11c.01.87,1.09,1.08,1.49-.1,1.16-4.8.47-12.74.63-17.08.3-8.04-3.4-.59-13.16-1.85-3.45-.44-6.75.65-9.7,1l-3.21.39c.19-.73.4-2.15-.3-3.39H32.16c-1.4,0-2.52.7-2.77,1.48-.14.44.61,1.36.84,1.77l-30.23.11,54.94-53.35L.45,131.32l102.58-.08c1.37,0,2.26-.35,3.19-.91.41,1.45,3.24,4.32,4.73,3.87,4.25-1.27,7.93-2.24,11.99-.51,2.63,1.12,5.8,1.36,8.34.14l-.48-19.97c-1.28-.63-4.55-2.54-3.2-3.99.64-.24,3.42-.14,3.44-1.28l.19-16.26c0-.77-.09-1.73-.3-2.15-.26-.51-1.11-.88-1.86-.81-.68-.94-1.28-2.19-1.27-3.93l.46-85.45,54.1,53.62L234.45,2.81l51.6,50.57L338.28,1.79l1.95,106.78,16.91.06-.21-22.42,27.18.02.05,28.1-21.61-.08.35,17.13h103.71s-53.92,52.72-53.92,52.72l43.18,42.63c3.65,3.6,7.79,6.24,10.58,10.77l-101.96.29-.17,16.93,21.3.11.06,26.71-26.98.15v-21.55s-16.64.21-16.64.21l.22,109.56-55.01-53.38-52.92,52.07-53.07-51.9-55.34,53.34.17-109.63-16.88-.04ZM179.14,177.89l.56-119.4-22.5-23.12-23.88-22.87-.44,120.12,35.49,35.56,10.78,9.72ZM184.6,153.12l-.04,24.09,12.84-11.48,34.63-34.48-.03-118.06-6.57,5.64-34.71,34.17c-1.95,1.92-4.52,2.86-5.93,5.62l-.19,94.5ZM284.04,176.97l-.02-118.51-37.74-37.11-9.23-8.29-.08,118.91,6.24,5.49,40.83,39.51ZM297.52,170.24l38.22-37.82-.9-44.79-1.51-73.8-44.36,44.07.38,99.02.78,20.05,7.4-6.73ZM379.27,91.21l-17.41.1.11,18.2,17.41-.1-.11-18.2ZM340.3,113.53l-.07,17.81,17.43.07.07-17.81-17.43-.07ZM174.87,181.72l-45.49-45.49-115.85.29,39.35,39.09,7.35,6.33,114.64-.21ZM234.47,134.87l-49.9,49.55,49.4,49.75,49.9-49.55-49.4-49.75ZM426.53,164.32l27.49-27.68-115.2-.28-45.56,45.58,114.79-.1,18.48-17.51ZM454.7,232.55l-34.48-34.09-11.46-11.26-108.17-.11c-2.38,0-4.34-1.16-6.77.81l28.23,27.59,17.58,17.25,115.09-.2ZM128.47,232.75l14.83-14.14,31.53-31.32-116.34-.12c-3.08,4.89-6.9,7.57-10.55,11.11l-24.89,24.13-9.43,10.15,114.85.19ZM131.29,356.96l17.67-15.66,29.62-29.66.14-98.13.12-22.45-6.89,6.24-30.7,30.25-10.24,9.96.28,119.45ZM231.46,357.81l.1-120.41-10.4-9.94-36.94-35.97-.28,120.54,29.65,28.92,17.87,16.86ZM236.76,357.41c5.53-1.92,6.63-5.7,9.93-8.29l37.89-37.48-.36-119.78-34.55,34.04-12.84,12.55-.08,118.97ZM328.19,349.78c2.93,2.9,5.5,5.46,8.85,7.09l.14-116.32c0-3.71-.84-3.95-3.11-6.15l-44.26-43.01-.25,29.97c-.05,5.66,1.28,11.29.19,16.99-.88,4.62-.1,8.81-.1,13.39l.06,59.95,38.48,38.1ZM341.75,237.61l-.02,17.9,17.4.02.02-17.9-17.4-.02ZM363.9,259.97v16.87h16.59v-16.87h-16.59Z"/>
      <path class="cls-3" d="M111.87,109.17c.06,1.77.67,3.59,2.76,4.1l-4.27-.03-.11,18.08,17.67.11.11-18.08-11.91-.07c.21-5.01,8.36-.58,9.06-4.85,5.23,1.26.92-8.29,3.9-19.05.75-.08,1.61.3,1.86.81.21.42.31,1.38.3,2.15l-.19,16.26c-.01,1.15-2.8,1.04-3.44,1.28-1.35,1.44,1.92,3.36,3.2,3.99l.48,19.97c-2.54,1.22-5.71.98-8.34-.14-4.07-1.73-7.75-.76-11.99.51-1.49.45-4.32-2.42-4.73-3.87-1.3-4.58-.48-11.02-.63-15.93l-21.88.05-.06-28.13,27.45-.05.76,22.88ZM88.56,91.13l-.12,18.26,17.76.11.12-18.26-17.76-.11Z"/>
      <path class="cls-3" d="M94.13,255.12l-.04,4.98c-1.84,0-3.64-.27-6.05.33v16.18s16.16-.15,16.16-.15l.37-14.55c1.35-1.02,2.99-1.55,4.65-1.54l.21,19.1c-1.5-.34-1.5,1.35,0,1.52l-23.33.74c-1.4.04-3.01-.02-3-1.22.49.33,2.02.09,2.02-1.01v-24.41s9.01.04,9.01.04Z"/>
      <path class="cls-3" d="M100.16,237.8l-69.93-.15c-.23-.4-.99-1.32-.84-1.77.25-.78,1.37-1.47,2.77-1.47h67.7c.71,1.23.5,2.66.3,3.39Z"/>
      <path class="cls-3" d="M126.23,238.26l-17.27-.55v17.39s4.68.45,4.68.45c-3.12,2.58-8.18-.77-9.37,4.56l-4.34-.02.05-5c.84,0,2.72.21,3.66-.56l-.28-17.12c2.95-.35,6.24-1.45,9.7-1,9.76,1.25,13.45-6.2,13.16,1.85Z"/>
      <path class="cls-4" d="M85.12,255.08v24.41c0,1.11-1.53,1.34-2.02,1.01l.3-25.17c0-.67.3-.96.93-.82.29.06.52.19.79.56Z"/>
      <polygon class="cls-4" points="99.99 255.09 99.94 260.09 94.09 260.1 94.13 255.12 99.99 255.09"/>
      <path class="cls-4" d="M125.18,108.43c-.7,4.27-8.86-.16-9.06,4.85h-1.49c-2.09-.51-2.7-2.33-2.76-4.11l13.31-.74Z"/>
      <path class="cls-4" d="M109.43,280.97c-1.5-.17-1.5-1.86,0-1.52v1.52Z"/>
      <path class="cls-1" d="M328.19,349.78l-38.48-38.1-.06-59.95c0-4.58-.79-8.78.1-13.39,1.09-5.69-.24-11.33-.19-16.99l.25-29.97,44.26,43.01c2.27,2.2,3.12,2.45,3.11,6.15l-.14,116.32c-3.35-1.63-5.92-4.19-8.85-7.09Z"/>
      <polygon class="cls-1" points="131.29 356.96 131.01 237.51 141.25 227.55 171.95 197.3 178.84 191.06 178.72 213.51 178.58 311.64 148.96 341.3 131.29 356.96"/>
      <polygon class="cls-1" points="231.46 357.81 213.59 340.95 183.94 312.03 184.22 191.49 221.16 227.46 231.57 237.4 231.46 357.81"/>
      <path class="cls-1" d="M236.76,357.41l.08-118.97,12.84-12.55,34.55-34.04.36,119.78-37.89,37.48c-3.31,2.59-4.4,6.37-9.93,8.29Z"/>
      <path class="cls-2" d="M184.6,153.12l.19-94.5c1.4-2.76,3.98-3.7,5.93-5.62l34.71-34.17,6.57-5.64.03,118.06-34.63,34.48-12.84,11.48.04-24.09Z"/>
      <polygon class="cls-1" points="284.04 176.97 243.2 137.47 236.96 131.98 237.05 13.06 246.28 21.36 284.02 58.46 284.04 176.97"/>
      <polygon class="cls-1" points="179.14 177.89 168.37 168.17 132.87 132.61 133.31 12.49 157.2 35.37 179.7 58.49 179.14 177.89"/>
      <polygon class="cls-1" points="297.52 170.24 290.12 176.97 289.34 156.92 288.96 57.9 333.32 13.83 334.83 87.64 335.74 132.42 297.52 170.24"/>
      <polygon class="cls-1" points="426.53 164.32 408.05 181.83 293.26 181.93 338.82 136.35 454.02 136.63 426.53 164.32"/>
      <polygon class="cls-1" points="174.87 181.72 60.23 181.92 52.88 175.6 13.53 136.51 129.37 136.23 174.87 181.72"/>
      <path class="cls-1" d="M128.47,232.75l-114.85-.19,9.43-10.15,24.89-24.13c3.65-3.54,7.47-6.22,10.55-11.11l116.34.12-31.53,31.32-14.83,14.14Z"/>
      <path class="cls-1" d="M454.7,232.55l-115.09.2-17.58-17.25-28.23-27.59c2.43-1.98,4.39-.81,6.77-.81l108.17.11,11.46,11.26,34.48,34.09Z"/>
      <rect class="cls-5" x="340.08" y="113.75" width="17.81" height="17.43" transform="translate(225.14 470.97) rotate(-89.77)"/>
      <path class="cls-5" d="M126.23,238.26c-.16,4.34.53,12.28-.63,17.08l-1.49.1-10.47.11-4.69-.45v-17.39s17.27.55,17.27.55Z"/>
      <rect class="cls-5" x="361.92" y="91.26" width="17.41" height="18.2" transform="translate(-.57 2.14) rotate(-.33)"/>
      <rect class="cls-5" x="341.49" y="237.87" width="17.9" height="17.4" transform="translate(103.44 596.71) rotate(-89.93)"/>
      <rect class="cls-5" x="363.9" y="259.97" width="16.59" height="16.87"/>
      <path class="cls-5" d="M94.09,260.1h5.85s4.34.02,4.34.02c.15.54.3,1.23.28,1.79l-.37,14.55-16.17.15v-16.18c2.42-.59,4.21-.33,6.06-.33Z"/>
      <path class="cls-3" d="M124.11,255.44l1.49-.1c-.4,1.18-1.48.97-1.49.1Z"/>
      <rect class="cls-5" x="88.25" y="91.44" width="18.26" height="17.76" transform="translate(-3.54 197.06) rotate(-89.64)"/>
      <rect class="cls-5" x="110.1" y="113.5" width="18.08" height="17.67" transform="translate(-3.91 240.74) rotate(-89.66)"/>
    </g>
  </g>
</svg>