<?xml version="1.0" encoding="UTF-8"?>
<svg id="Layer_2" data-name="Layer 2" xmlns="http://www.w3.org/2000/svg" viewBox="0 0 480.88 468.24">
  <defs>
    <style>
      .cls-1 {
        fill: #e11a27;
      }

      .cls-2 {
        fill: #b7aa74;
      }

      .cls-3 {
        fill: #181917;
      }

      .cls-4 {
        fill: #1d1210;
      }

      .cls-5 {
        fill: #072b16;
      }
    </style>
  </defs>
  <g id="Layer_1-2" data-name="Layer 1">
    <g>
      <g>
        <path class="cls-3" d="M381.47,193.25c-4.65-.41-8.75-3.32-13.03-5.6-2.99,1.68-7.04,2.35-10.36,3.33l-34.69,10.22c-.72.21-1.83.69-2.21,1.25-.34.49-.74,1.19.15,1.82l-.14.85,3.32,4.05c1.31,1.6-2.17,2.58-3.43,2.72.2-1-1.17-1.13-1.55-1.48-.15-.58-.62-1.04-1.19-1.06l-1.97-.05c-.81.12-.94.86-.96,1.52-.02.76.23,1.47,1.05,1.52l.05,24.03c-.32.21-1.19.56-1.61.45-.81-.21-1.46-1.18-1.46-2.49l.03-25.9c-1.16-.63-1.87.07-1.9.9h-1.87c-.67.47-2.99,1.5-3.89.39-1.32-1.63.63-4.82,3.21-5.08-3.27-3.86-7.11-4.49-11.17-5.71l-23.78-7.13-11.19-4.02c-1.19-.43-2.5-.37-3.44-.1-1.23.35-2.17,1.3-1.88,2.83-.19-.01-.45,0-.64.07-.52.21-1.04.51-1.45.9-.48.45-1.04.75-1.6,1.12l-1.4.92c-.55.36-1.02.81-1.63,1.09-.49.22-.96.56-1.34.96-1.51,1.6-3.69,3.13-5.92,3.6-3.65.76-6.85,3.33-9.1,6.28-.53.3-1.22.72-1.56,1.29-2.43,1.1-6.05.57-8.53.53l35.03-23.81,47.86-.09-19.01-18.56,22.9-21.56-22.99-22.11,22.78-21.61-22.55-21.89,19.71-18.75-86.86-.15-41.74,40.59c-3.11,3.03-6.58,4.89-8.73,9.04l-.14,271.2,70.96-65.12.36,67.03-71.32,66.85-.15,19.92-7.75-.03-.12-129.75-61.88-58.42-52.15-48.99-.09-32.67L.01,153.08V50.71s56.49,53.67,56.49,53.67l.08,122.72c4.1,5.25,8.61,9.29,13.59,13.49l16.95,15.93-.37-61.07,75.52,69.9.63-20.47-76.33-69.65-.93-49.89c-.13-6.95-.93-13.16-2.1-20.31l79.18,70.93.15-71.58,55.85-54.77L269.24.14l104.21-.14,38.56,37.32-170.03-.04-13.19,13.84,208.49.28,26.99,19.01,16.62,49.04-60.33-40.16-30.18-20.75-71.55.25,20.02,19.42-22.09,21.27,22.25,22.12-22.23,21.89,22.7,22.04-18.47,17.87,47.36.08,13.11,9.77ZM399.98,32.33l-27.24-27.1-97.87.11-17.45,17.05-9.41,9.95h151.97ZM460.83,73.36l-23.57-16.41-41.13.08,43.71,29.84,32.12,21.24-11.14-34.76ZM48.89,191.76l-.17-87.97L4.87,61.67l-.06,89.17,44.07,40.92ZM329.48,77.82l-15.74-15.23-15.71,15.72,16.2,15.84,15.25-16.33ZM321.37,129.8l7.66-8.24c-4.83-6.2-9.59-11.08-15.26-16l-15.79,15.83,16.2,15.68c1.86-3.5,4.87-4.78,7.19-7.27ZM162.43,238.01l.38-55.81-71.79-64.44.59,55.51,70.82,64.75ZM330.32,165.12l-16.54-15.54-15.8,15.79,16.33,15.24,16.01-15.5ZM162.67,327.53l.15-55.28-70.66-65.56.15,55.83,50.58,47.31,19.77,17.7ZM187.16,426.55l14.33-13.26,25-23.85,10.36-10.05-.26-53.7-11.79,10.97-32.89,30.15c-7.24,6.64-13.59,13.41-21.43,19.62l.19,54.38,16.49-14.27Z"/>
        <g>
          <polygon class="cls-5" points="162.43 238.01 91.61 173.26 91.02 117.75 162.81 182.19 162.43 238.01"/>
          <polygon class="cls-2" points="48.89 191.76 4.82 150.84 4.87 61.67 48.72 103.79 48.89 191.76"/>
          <polygon class="cls-2" points="162.67 327.53 142.9 309.83 92.32 262.52 92.16 206.69 162.82 272.25 162.67 327.53"/>
        </g>
        <path class="cls-5" d="M187.16,426.55l-16.49,14.27-.19-54.38c7.84-6.21,14.19-12.98,21.43-19.62l32.89-30.15,11.79-10.97.26,53.7-10.36,10.05-25,23.85-14.33,13.26Z"/>
      </g>
      <g>
        <polygon class="cls-1" points="399.98 32.33 248.01 32.34 257.42 22.38 274.86 5.33 372.73 5.22 399.98 32.33"/>
        <polygon class="cls-1" points="460.83 73.36 471.98 108.12 439.85 86.88 396.14 57.04 437.27 56.95 460.83 73.36"/>
        <g>
          <path class="cls-4" d="M309.69,209.34c-.13.25-.39.97-.98,1.35l-59.5,38.29-46,30.42,47.06,15.22,61.14-39.39.15-45.9c.03-.83.74-1.53,1.9-.9l-.03,25.9c0,1.31.65,2.27,1.46,2.49.41.11,1.29-.24,1.61-.45l.26,18.86,60.3,40.04,47.34-14.75-103.33-68.62c1.27-.14,4.74-1.13,3.43-2.72l-3.32-4.05,107.08,69.97.31-45.89-60.24-39.95-34.51,10.41c-4.46,1.34-8.99,2.12-12.5,4.61-.88-.62-.49-1.33-.15-1.82.39-.56,1.49-1.03,2.21-1.25l34.69-10.22c3.32-.98,7.37-1.66,10.36-3.33,4.28,2.28,8.38,5.18,13.03,5.6,1.88.17,3.51,1.53,5.37,2.77l46.77,31.31.14,55.25-56.52,17.65-14.88-9.04-47.95,30.74-49.52-31.08-13.62,8.64-57.11-17.66.04-55.15,30.19-19.42c2.48.04,6.1.57,8.53-.53l-34.33,22.74.61,44.6,46.13-29.9,62.06-39.71c-7.59-4.22-15.21-4.9-22.73-7.39l-20.28-6.72c-2.58-.85-4.71-1.25-6.82.16-.29-1.53.66-2.48,1.88-2.83.93-.26,2.24-.33,3.44.1l11.19,4.02,23.78,7.13c4.07,1.22,7.9,1.85,11.17,5.71-2.58.27-4.53,3.46-3.21,5.08.9,1.11,3.22.09,3.89-.38ZM310.52,313.68l.26-52.8-40.31,26.74c12.73,10.09,25.9,18.22,40.05,26.07ZM357.96,288.35l-40.83-27.11.21,53.43,40.62-26.32Z"/>
          <path class="cls-1" d="M311.56,209.34l-.15,45.9-61.14,39.39-47.06-15.22,46-30.42,59.5-38.29c.59-.38.85-1.1.98-1.35h1.87Z"/>
          <path class="cls-1" d="M318.33,209.36l1.19,1.06c.38.35,1.75.47,1.55,1.48l103.33,68.62-47.34,14.75-60.3-40.04-.26-18.86-.05-24.03-.09-3.03,1.97.05Z"/>
          <path class="cls-1" d="M321.19,205.12l.14-.85c3.5-2.49,8.04-3.27,12.5-4.61l34.51-10.41,60.24,39.95-.31,45.89-107.08-69.97Z"/>
          <path class="cls-1" d="M232.91,206.73c.34-.57,1.03-.99,1.56-1.29,3.18-1.82,6.75-3.26,9.1-6.28,2.23-.47,4.41-1.99,5.92-3.6l1.34-.96c.61-.28,1.08-.73,1.63-1.09l1.4-.92c.55-.36,1.11-.66,1.6-1.12l1.45-.9c.19-.08.45-.08.64-.07,2.11-1.41,4.25-1.01,6.82-.16l20.28,6.72c7.52,2.49,15.15,3.17,22.73,7.39l-62.06,39.71-46.13,29.9-.61-44.6,34.33-22.74Z"/>
          <polygon class="cls-5" points="330.32 165.12 314.3 180.62 297.97 165.38 313.77 149.58 330.32 165.12"/>
          <polygon class="cls-5" points="329.48 77.82 314.23 94.15 298.03 78.3 313.74 62.59 329.48 77.82"/>
          <path class="cls-5" d="M321.37,129.8c-2.31,2.49-5.33,3.77-7.19,7.27l-16.2-15.68,15.79-15.83c5.67,4.92,10.43,9.8,15.26,16l-7.66,8.24Z"/>
          <path class="cls-4" d="M243.58,199.16c-2.36,3.02-5.93,4.46-9.1,6.28,2.26-2.95,5.46-5.52,9.1-6.28Z"/>
          <path class="cls-4" d="M316.46,212.34c-.83-.04-1.07-.75-1.05-1.52.02-.65.16-1.4.96-1.52l.09,3.03Z"/>
          <path class="cls-4" d="M252.46,193.51l1.4-.92-1.4.92Z"/>
          <path class="cls-4" d="M255.45,191.48c.41-.38.93-.69,1.45-.9l-1.45.9Z"/>
          <path class="cls-4" d="M319.52,210.42l-1.19-1.06c.56.02,1.04.48,1.19,1.06Z"/>
          <path class="cls-4" d="M249.5,195.56c.38-.41.85-.74,1.34-.96l-1.34.96Z"/>
          <polygon class="cls-1" points="357.96 288.35 317.34 314.67 317.13 261.24 357.96 288.35"/>
          <path class="cls-1" d="M310.52,313.68c-14.15-7.84-27.33-15.98-40.05-26.07l40.31-26.74-.26,52.8Z"/>
        </g>
      </g>
    </g>
  </g>
</svg>