<?xml version="1.0" encoding="UTF-8"?>
<svg id="Layer_2" data-name="Layer 2" xmlns="http://www.w3.org/2000/svg" viewBox="0 0 297.52 416.78">
  <defs>
    <style>
      .cls-1 {
        fill: #e11a27;
      }

      .cls-2 {
        fill: #b7aa74;
      }

      .cls-3 {
        fill: #181917;
      }

      .cls-4 {
        fill: #1d1210;
      }

      .cls-5 {
        fill: #072b16;
      }
    </style>
  </defs>
  <g id="Layer_1-2" data-name="Layer 1">
    <g>
      <g>
        <path class="cls-3" d="M208.22,152.33c.15-1.01,1.59-.94,2-.56,1.61,1.52,4.64,1.5,6.85.34,1.7-.9,3.88-3.2,4.39-5.4.62-2.69,3.7-3.39,4.94-5.04,1.77.06,3.49.44,3.98,2.34l-13.4,12.56-62.57-.15.36,114.03,55.08-53.07,41.31-40.37.18,45.89-96.44,92.83.56,20.78,95.51-92.65-.12,45.94-95.86,91.83.16,35.15-8.36-.02.06-34.93-23.54-23.24-73.02-70.05v-45.16s95.79,92.34,95.79,92.34c1.77-7.24.43-12.64.85-19.48l-79.91-78.06-17.2-16.04.17-45.94,96.58,93.69-.31-113.54-62.32-.2c-.24-1.06-.17-2.91,1.38-3.26l38.9-.67c1.13-.82,3.91-1.21,4.91-.47,2.67,1.97,14.47,2.65,16.24-4.17.22.15.53.1.75.09,1.49-.11,3.08-.89,3.11-2.89l.29-18.05h1.62s.66,21.81.66,21.81c1.34-.06,2.66-.05,3.57.48,1.03.59,1.7,2.02,2.15,3.99l50.72-.68ZM146.33,305.74l.48-26.18-39.46-37.92-49.93-48.59-.16,27.28c7.35,6.04,13.27,12.08,19.98,18.57l69.09,66.84ZM154.42,280.08l.7,25.35,39.21-37.66,49.71-47.2-.33-26.35-25.49,24.49-30.53,29.42-18.33,17.69-14.94,14.27ZM146.77,370.2l.28-24.14c-2.91-3.38-6.23-5.78-9.32-8.79l-31.42-30.55-32.03-30.89-17.08-15.79.65,25.23c4.34,6.07,11.02,11.23,16.43,16.42l23,22.06,23.48,22.48,18.49,17.5,7.51,6.47ZM176.1,351.06l17.17-16.32,17.99-17,20.9-20.21c3.75-3.62,9.55-7.13,11.76-11.82l-.06-24.64-11.61,10.69-25.03,23.97-34.96,33.91-17.34,16.79.4,24.1,20.78-19.47Z"/>
        <path class="cls-2" d="M146.33,305.74l-69.09-66.84c-6.71-6.49-12.63-12.53-19.98-18.57l.16-27.28,49.93,48.59,39.46,37.92-.48,26.18Z"/>
        <polygon class="cls-2" points="154.42 280.08 169.36 265.82 187.69 248.13 218.22 218.71 243.71 194.22 244.04 220.57 194.32 267.77 155.11 305.44 154.42 280.08"/>
        <path class="cls-5" d="M146.77,370.2l-7.51-6.47-18.49-17.5-23.48-22.48-23-22.06c-5.41-5.19-12.09-10.35-16.43-16.42l-.65-25.23,17.08,15.79,32.03,30.89,31.42,30.55c3.1,3.01,6.42,5.41,9.32,8.79l-.28,24.14Z"/>
        <path class="cls-5" d="M176.1,351.06l-20.78,19.47-.4-24.1,17.34-16.79,34.96-33.91,25.03-23.97,11.61-10.69.06,24.64c-2.22,4.68-8.02,8.19-11.76,11.82l-20.9,20.21-17.99,17-17.17,16.32Z"/>
      </g>
      <g>
        <path class="cls-4" d="M230.37,144.01c-.5-1.9-2.22-2.28-3.98-2.34,2.07-2.75,4.7-4.73,7.49-7.34l14.97-14.02,36.33-34.68-57.72-.11-70.08,65.06c2.8.72,6.28,1.08,9.91,1.08l40.94.68-50.72.68c-.45-1.97-1.12-3.4-2.15-3.99-.91-.52-2.23-.54-3.57-.48l-.66-21.83h-1.62s-.29,18.07-.29,18.07c-.03,2-1.62,2.77-3.11,2.89.78-.89,1.26-2.21,1.26-3.89l-.06-51.17-60.51-56.32c-4.52-3.56-7.55-7.76-13.05-11l.15,55.29,66.22,61.2c2.19,2.03,4.8,3.07,5.24,5.79-1.77,6.83-13.57,6.14-16.24,4.17,2.99-2.22,8.51,1.08,13.57-1.43-5.55-3.99-9.79-8.71-14.76-13.25l-13.11-11.95-43.75-40.66-57.68.33,14.86,14.09,56.37,52.54,39.59.79-38.9.67c-1.55.35-1.62,2.2-1.38,3.26-1.93-.29-3.33-1.2-4.38-2.75l-38.04-35.9L0,79.64l68.56-.26-.43-66.3,34.81,31.52L148.85,0l46.49,44.68,34.3-31.58-.05,67.3,67.92.43c-9.17,9.91-18.86,18.3-28.58,27.6l-38.56,35.57ZM146.54,84.64c1.17-16.85.57-31.42.33-46.65l-.44-28.02-25.62,24.25-13.98,13.97,39.71,36.45ZM191.92,47.82l-12.22-11.62-16.78-16.11-10.85-9.9.12,74.86c7.1-4.99,12.47-10.96,18.52-16.8l21.2-20.43ZM153.07,133.21l.19,14.03c10.86-8.21,19.16-17.64,28.85-26.66l42.4-39.44.03-57.1c-7.67,7.31-13.86,14.22-21.63,20.33-5.08,5.45-10.16,10.43-15.97,15.04-6.14,6.74-12.7,12.51-19.36,18.64-5.14,4.73-9.45,9.73-15.32,13.8l.81,41.37Z"/>
        <path class="cls-1" d="M146.1,147.68c-.22.02-.53.06-.75-.09-.44-2.72-3.05-3.76-5.24-5.79l-66.22-61.2-.15-55.29c5.51,3.23,8.53,7.43,13.05,11l60.51,56.32.06,51.17c0,1.68-.48,3-1.26,3.89Z"/>
        <path class="cls-1" d="M129.11,151.76c-1-.74-3.79-.36-4.91.47l-39.59-.79-56.37-52.54-14.86-14.09,57.68-.33,43.75,40.66,13.11,11.95c4.98,4.54,9.21,9.25,14.76,13.25-5.06,2.51-10.58-.79-13.57,1.43Z"/>
        <path class="cls-1" d="M226.39,141.67c-1.24,1.64-4.31,2.34-4.94,5.04-4.32,1.42-4.91,5.98-11.23,5.06-.41-.38-1.85-.45-2,.56l-40.94-.68c-3.62,0-7.11-.36-9.91-1.08l70.08-65.06,57.72.11-36.33,34.68-14.97,14.02c-2.79,2.61-5.42,4.59-7.49,7.34Z"/>
        <path class="cls-4" d="M221.45,146.71c-.51,2.2-2.69,4.51-4.39,5.4-2.21,1.16-5.23,1.18-6.85-.34,6.33.92,6.91-3.64,11.23-5.06Z"/>
        <path class="cls-1" d="M153.07,133.21l-.81-41.37c5.87-4.07,10.18-9.07,15.32-13.8,6.66-6.13,13.22-11.9,19.36-18.64,5.81-4.61,10.89-9.59,15.97-15.04,7.77-6.12,13.96-13.02,21.63-20.33l-.03,57.1-42.4,39.44c-9.69,9.02-18,18.45-28.85,26.66l-.19-14.03Z"/>
        <path class="cls-1" d="M146.54,84.64l-39.71-36.45,13.98-13.97,25.62-24.25.44,28.02c.24,15.24.85,29.81-.33,46.65Z"/>
        <path class="cls-1" d="M191.92,47.82l-21.2,20.43c-6.05,5.83-11.42,11.8-18.52,16.8l-.12-74.86,10.85,9.9,16.78,16.11,12.22,11.62Z"/>
      </g>
    </g>
  </g>
</svg>