<?xml version="1.0" encoding="UTF-8"?>
<svg id="Layer_2" data-name="Layer 2" xmlns="http://www.w3.org/2000/svg" viewBox="0 0 333.05 462.34">
  <defs>
    <style>
      .cls-1 {
        fill: #e11a27;
      }

      .cls-2 {
        fill: #b7aa74;
      }

      .cls-3 {
        fill: #181917;
      }

      .cls-4 {
        fill: #1d1210;
      }

      .cls-5 {
        fill: #072b16;
      }
    </style>
  </defs>
  <g id="Layer_1-2" data-name="Layer 1">
    <g>
      <g>
        <path class="cls-3" d="M168.69,108.95l.04,41.46c-1.87.89-1.76,4.98.41,5.77,1.2-.48,3.17-3.06,5.09-1.04-1.61,1.33-2.71,2.86-2.34,3.69l1.5,3.4c.43.98-.97,2.75-.67,3.44.27.62,1.59.88,2.17.93,1.64.15,2.72,2.85,3.75,3.85l.24,5.76c-3.02-1.12-4.09-4.13-7.97-6.36l.13,212.56,18.05-16.93.06-64.02,80.52-78.75.16,72.04,60.08.29-53.82,51.73-56.14-.19-48.68,47.11v68.67s-8.63-.02-8.63-.02l.09-69.05-47.79-46.94-54.16.05-21.04-20.12-34.24-31.75,58.73-.28.02-72.43,81.46,79.7.29,64.06,16.58,16.28-.3-207.33c0-2.24-.67-3.16-1.28-4.29-.73-1.37.34-5.13-.85-6.18-2.39-1.88-5.67-1.31-8.49-1.64-.48-1.32-.2-2.16-.06-3.02l6.86.06,1.62-.04c.49-.01.89-.94.52-1.47-.45-.66-1.41-.71-2.16-.58l-6.9-6.69c.74-1.43,1.56-2.51,3-3.33l7.41,7.31c.21,1.13.13,1.5,1.21,1.48s2.33-.6,2.34-1.92l.37-50.27c2.83.95,1.72,3.81,2.8,5.02ZM140.75,302.55l-20.84-19.52-50.46-48.71-.09,61,71.16,68.25.22-61.02ZM194.74,363l14.55-12.97,32.88-32.01,22.68-22.45-.22-60.38-13.59,12.79-46.35,45.33-10.55,10.14.6,59.54ZM109.77,341.44c-1.54-3.97-4.95-5.75-7.76-8.44l-16.35-15.64-19.05-18.3-47.63.31c2.71,4.79,7.08,7.36,10.78,10.9l15.84,15.16,17.34,15.96,46.82.05ZM274.5,341.42l42.18-40.98-49.13-.48-42.38,41.38,49.33.08Z"/>
        <polygon class="cls-2" points="140.75 302.55 140.53 363.57 69.37 295.32 69.46 234.32 119.91 283.03 140.75 302.55"/>
        <polygon class="cls-5" points="194.74 363 194.14 303.46 204.69 293.32 251.04 247.98 264.63 235.19 264.84 295.56 242.16 318.02 209.29 350.03 194.74 363"/>
        <path class="cls-5" d="M109.77,341.44l-46.82-.05-17.34-15.96-15.84-15.16c-3.7-3.54-8.06-6.11-10.78-10.9l47.63-.31,19.05,18.3,16.35,15.64c2.81,2.69,6.22,4.47,7.76,8.44Z"/>
        <polygon class="cls-2" points="274.5 341.42 225.17 341.34 267.54 299.96 316.68 300.44 274.5 341.42"/>
      </g>
      <g>
        <path class="cls-4" d="M255.65,210.66c.25-1.11-.19-2.42-.97-2.87-1.15-.66-2.48-.77-3.89-.28l-2.83.98c-.73.25-1.01,1.23-.42,2.06l-6.87.04c.18-.3.29-1.27.04-1.61-1.26-1.68-15.83-1.01-15.74-.06l.11,1.42-2.45.16c.37-.56.16-2.05-.95-2.05l-10.26.06c-3.15-3.05-7.34-6.38-9.62-10.01l-1.39-6.23c5.55,3.47,9.6,8.21,14.65,13.27l102.88.14c-.47-3.28-3.38-4.3-5.39-6.24l-34.62-33.43c-5.5-2.84-12.82-1.14-18.82-1.18l-84.1-.48c-.33,1.06-.17,1.68-.1,2.25-.58-.05-1.9-.31-2.17-.93-.3-.69,1.1-2.47.67-3.44l-1.5-3.4c-.37-.83.73-2.36,2.34-3.69-1.92-2.02-3.89.55-5.09,1.04-2.17-.79-2.28-4.88-.41-5.77l1.26,4.64c1.82-2.97,4.82-4.41,7.35-6.94l33.75-33.69-.38-101.53-19.18,18.46-22.74,22.13-.09,55.47c-1.09-1.21.03-4.06-2.8-5.02l-.37,50.27c0,1.32-1.24,1.9-2.34,1.92s-1.01-.35-1.21-1.48c.65.17,1.63-.16,1.63-1.27l.06-100.5-21.56-20.97-20.47-19.37v101.57s32.94,33.23,32.94,33.23c-1.44.82-2.26,1.9-3,3.33l-17.27-16.91-7.86-7.32c-2.39-2.22-4.99-7.24-8.43-8.13-6.61-1.7-13.31-.3-20.15-.34l-84.74-.49,33.35,33.07,8.88,8.61,96.3.22c-.14.87-.41,1.7.06,3.02,2.82.33,6.1-.25,8.49,1.64,1.18,1.05.11,4.82.85,6.18-.69.28-1.21.99-1.36,1.45l-5.21-1.03c.67-2.3,2.52-4,4.44-6.17l-103.37-.37-39.96,37.5c2.27-4.04,5.04-5.17,3.68-9.59l31.78-30.49L0,112.17l96.8.39.12-13.83-20.15-.16-.09-25.13,25.46.09.07,20.2,14.47-.19-.42-93.54,50.02,48.65L216.06.77l.05,92.88,14.89.16-.11-19.93,25.22.06v25.03s-19.89.14-19.89.14l.24,14.31,96.59.12-51.27,48.87,49.48,48.17-75.62.07ZM81.6,78.07l-.09,15.76,15.77.09.09-15.76-15.77-.09ZM251.23,78.5h-15.53s.01,16.07.01,16.07h15.53s-.01-16.07-.01-16.07ZM116.95,112.93l-.34-14.3-14.77-.27.12,14.6,14.99-.03ZM215.74,98.59l-.16,14.94,15.47.16.16-14.94-15.47-.16ZM277.87,159.87l17.26-16.97,24.33-24.36-103.74-.2-8.37,6.85-24.74,24.17c-3.28,3.21-6.48,6.17-9.34,10.09l104.6.42Z"/>
        <path class="cls-3" d="M159.66,171.67l-39.53,38.23H.15s19.1-17.89,19.1-17.89c1.36,4.42-1.42,5.55-3.68,9.59l-.98,1.75c-1.15.22-1.14.76-1.33,1.37-.39,1.22,1.11,2.25,2.24,1.75,2.97-1.32,5.31-.02,8.19-.03l94.55-.31c4.7-1.6,8.3-7.27,10.15-11.05,2.31-2.08,4.2-5.42,7.24-6.33,5.27-1.56,7.88-6.63,12.35-10,2.16-1.63,4.63-2.1,3.47-5.57.92-.71,1.93-2.11,3-2.53l5.21,1.03Z"/>
        <path class="cls-3" d="M194.69,186.62c2.05.8,5.21,3.53,5.7,5.66l1.39,6.23-2.73-1.53-15.92-16.7c5.62,1.9,8.32,5.07,11.56,6.34Z"/>
        <path class="cls-4" d="M194.69,186.62c-3.25-1.28-5.94-4.45-11.56-6.34-1.98-.67-4.06-1.9-4.24-4.06l-.24-5.76,16.05,16.16Z"/>
        <path class="cls-3" d="M240.66,210.59l-15.6-.24-.11-1.42c-.09-.96,14.48-1.63,15.74.06.25.33.14,1.3-.04,1.61Z"/>
        <path class="cls-3" d="M255.65,210.66l-8.11-.11c-.59-.83-.3-1.81.42-2.06l2.83-.98c1.4-.49,2.74-.37,3.89.28.78.44,1.22,1.76.97,2.87Z"/>
        <path class="cls-3" d="M222.61,210.51l-7.98-.03c-1.97,0-2.4-1.16-3.23-1.96l10.26-.06c1.11,0,1.32,1.5.95,2.05Z"/>
        <path class="cls-1" d="M151.55,150.66l6.9,6.69.02,2.09-6.86-.06-96.3-.22-8.88-8.61L13.1,117.48l84.74.49c6.84.04,13.54-1.36,20.15.34,3.45.89,6.04,5.91,8.43,8.13l7.86,7.32,17.27,16.91Z"/>
        <path class="cls-1" d="M161.96,154.64l-7.41-7.31-32.94-33.23V12.54s20.47,19.37,20.47,19.37l21.56,20.97-.06,100.5c0,1.11-.98,1.44-1.63,1.27Z"/>
        <path class="cls-1" d="M168.73,150.41l-.04-41.46.09-55.47,22.74-22.13,19.18-18.46.38,101.53-33.75,33.69c-2.53,2.53-5.54,3.97-7.35,6.94l-1.26-4.64Z"/>
        <path class="cls-1" d="M200.39,192.27c-.49-2.13-3.66-4.85-5.7-5.66l-16.05-16.16c-1.03-1-2.11-3.7-3.75-3.85-.06-.58-.22-1.19.1-2.25l84.1.48c6,.03,13.32-1.66,18.82,1.18l34.62,33.43c2.01,1.94,4.92,2.96,5.39,6.24l-102.88-.14c-5.05-5.05-9.11-9.8-14.65-13.27Z"/>
        <path class="cls-4" d="M158.48,159.44l-.02-2.09c.74-.13,1.7-.08,2.16.58.37.54-.02,1.46-.52,1.47l-1.62.04Z"/>
        <path class="cls-1" d="M277.87,159.87l-104.6-.42c2.87-3.91,6.06-6.88,9.34-10.09l24.74-24.17,8.37-6.85,103.74.2-24.33,24.36-17.26,16.97Z"/>
        <path class="cls-1" d="M154.45,170.64c-1.07.42-2.08,1.82-3,2.53-5.84,4.52-11.06,9.91-15.82,15.57-3.04.9-4.93,4.25-7.24,6.33l-10.27,9.24c-2.77.52-8.49,1.25-11.19.82-5.26-.82-8.64-.03-13.43-.06l-39.27-.21-38.56-.38c-.79,0-1.25-.61-1.08-1.13l.98-1.75,39.96-37.5,103.37.37c-1.93,2.16-3.77,3.86-4.44,6.17Z"/>
        <rect class="cls-5" x="235.71" y="78.51" width="15.53" height="16.06"/>
        <rect class="cls-5" x="81.56" y="78.11" width="15.76" height="15.77" transform="translate(2.91 174.93) rotate(-89.66)"/>
        <rect class="cls-5" x="215.92" y="98.4" width="14.94" height="15.47" transform="translate(114.92 328.4) rotate(-89.4)"/>
        <polygon class="cls-5" points="116.95 112.93 101.96 112.95 101.83 98.35 116.6 98.62 116.95 112.93"/>
        <path class="cls-4" d="M128.39,195.07c-1.85,3.78-5.46,9.45-10.15,11.05l-94.55.31c-2.88,0-5.23-1.29-8.19.03-1.12.5-2.63-.52-2.24-1.75.19-.6.18-1.15,1.33-1.37-.17.53.29,1.13,1.08,1.13l38.56.38,39.27.21c4.79.03,8.17-.77,13.43.06,2.7.42,8.42-.3,11.19-.82l10.27-9.24Z"/>
        <path class="cls-4" d="M135.63,188.74c4.76-5.66,9.98-11.05,15.82-15.57,1.16,3.47-1.31,3.94-3.47,5.57-4.47,3.37-7.08,8.44-12.35,10Z"/>
      </g>
    </g>
  </g>
</svg>