<svg xmlns="http://www.w3.org/2000/svg" width="316.09" height="315.56" viewBox="0 0 316.09 315.56">
  <g id="Layer_2" data-name="Layer 2">
    <g id="Layer_1-2" data-name="Layer 1">
      <g>
        <path d="M158,0c87.29,0,158,70.64,158,157.78S245.33,315.56,158,315.56,0,244.92,0,157.78,70.76,0,158,0Z" fill="#072b16" fill-rule="evenodd"/>
        <path d="M158.29,215a7.3,7.3,0,1,1-7.3,7.3,7.3,7.3,0,0,1,7.3-7.3Z" fill="#e8e2bf" fill-rule="evenodd"/>
        <path d="M133.53,221.42l4.8-3.69c1-.76.87-1,1.71.28,3.56,5.58,9.06,10.75,15.93,15.12-7.61,1.64-15.62-2.29-22.77-9.9-1-1.12-.72-1,.33-1.81Z" fill="#e8e2bf" fill-rule="evenodd"/>
        <path d="M183,221.42l-4.8-3.69c-1-.76-.87-1-1.71.28-3.57,5.58-9.06,10.75-15.93,15.12,7.61,1.64,15.62-2.29,22.77-9.9,1-1.12.72-1-.33-1.81Z" fill="#e8e2bf" fill-rule="evenodd"/>
        <path d="M157.16,236.82a109.63,109.63,0,0,1-20.89,23.55c-.92.79-1.69,1.43,0,2.08,8.3,3.1,13.17,4.53,22.29,4.48,7.23.16,14.49-2.19,21.43-4.69,1.45-.52.6-1.4-.14-2.05-9.16-8.06-15.89-15.42-20.95-23.48-.81-1.29-1.09-1-1.77.11Z" fill="#e8e2bf" fill-rule="evenodd"/>
        <path d="M73,87.44q-18.07,2.73-26.35,19.67A65.76,65.76,0,0,0,40,134.88c-.32,10,2.74,27.42,8.05,36,3.95,6.43,9.12,11.52,16.22,14.52a36.76,36.76,0,0,0,18.46,1.37,32.15,32.15,0,0,0,20.64-15.39,70,70,0,0,0,7.84-30.23c.44-14.12-1.47-27.14-8.17-37.9C95.6,91.7,85.33,87.05,73,87.44Zm-9.56,7.94c-7.2,1.52-11.16,7.69-13.11,16.75-2,9.32-.46,23.83,1.91,32.92,2.37,9.93,7.42,19,14.2,27.44,6.09,6.41,12.88,9.61,20.82,7.52,12-3.17,14.16-14.3,14.34-25.34-.15-11.59-1.85-22.21-5.36-31.7-8.68-21.29-19.7-30-32.8-27.59Z" fill="#e8e2bf" fill-rule="evenodd"/>
        <path d="M125.34,88.12H144.2c-.17,3.33-4.89,7.57-.86,17.8,3.63,9.25,16.35,21.16,23.18,28.34a125.7,125.7,0,0,1,19.15,25.47c-.28-17.5-1.28-29.87-7.26-46.28-6.41-17.58-13-21.86-13.73-25.33h24.85v98.19h-5c-.22-4.77-.14-10.23-.57-14.87-.52-5.67-3.57-11.91-7.86-18.42a105.75,105.75,0,0,0-14-15.7c-8.84-8.2-19.65-16.41-29-24.2.32,15.29,2,33.36,6.63,47.95,2.58,8.06,7.31,16.44,14.73,25.24H128.84V106.83L126,101.61c-1.73-3.52-1.7-8.18-.69-13.49Z" fill="#e8e2bf" fill-rule="evenodd"/>
        <path d="M242.63,82.7c6.68.29,13.62-2.14,21.07-10a1,1,0,0,0-.14-1.59l-4.67-3.63c-.7-.55-1.29-.7-1.84.18a38.87,38.87,0,0,1-14.87,13.85c-1.1.59-.72,1.19.45,1.24Z" fill="#e8e2bf" fill-rule="evenodd"/>
        <path d="M215,110.26V88.34L269.19,88l-.13,98.28H243.91c1.44-4.26,10.61-10.68,16.83-39.22.49-2.22.91-4.41,1.29-6.57H221.54a81.07,81.07,0,0,0-1.69,11.52,52.13,52.13,0,0,0,1.9,20c2.62,9.59,5.91,11.91,6.57,14.18l-17.94-.15c-5.79-5.8-6.29-20.77-4.85-28.54,1.28-6.92,4.24-15.37,8.17-21.27,7.24-10.83,19.45-27.41,22.07-33.76a22.48,22.48,0,0,0,1.62-9.75C219.82,98.22,218,108.22,215,110.26ZM262.6,137c2.27-15.12,2.16-29.1,2-45.36L241.44,92c-.15,11-1.6,14.12-6.82,22.94-6.06,10.23-9.79,14.93-12.11,22.1Z" fill="#e8e2bf" fill-rule="evenodd"/>
      </g>
    </g>
  </g>
</svg>
